<?xml version="1.0" encoding="UTF-8"?>
<svg version="1.1" xmlns="http://www.w3.org/2000/svg" width="128" height="128">
<path d="M0 0 C42.24 0 84.48 0 128 0 C128 42.24 128 84.48 128 128 C85.76 128 43.52 128 0 128 C0 85.76 0 43.52 0 0 Z " fill="#FAF78A" transform="translate(0,0)"/>
<path d="M0 0 C0.99 0.33 1.98 0.66 3 1 C4.02734375 3.109375 4.02734375 3.109375 4.9375 5.75 C6.47925597 9.87492447 8.18061084 12.60014837 11 16 C12.52850644 18.65751687 13.96511731 21.35669985 15.40625 24.0625 C17.79334281 28.46223969 20.38846777 32.73079306 23 37 C23.495 36.01 23.495 36.01 24 35 C21.81389118 30.62778237 19.67758005 27.28355362 16 24 C16.625 22.125 16.625 22.125 18 20 C21.125 18.75 21.125 18.75 24 18 C24.495 19.485 24.495 19.485 25 21 C26.4540625 19.8553125 26.4540625 19.8553125 27.9375 18.6875 C37.39887111 12.09264331 46.89895906 12.65588048 58 13 C59.15837626 17.05431692 58.83691257 19.21812119 57 23 C56.36835937 22.88140625 55.73671875 22.7628125 55.0859375 22.640625 C46.66256153 21.42688207 39.97200978 23.29371247 32 26 C31.01 26.33 30.02 26.66 29 27 C29.6079699 31.06301833 30.95176752 34.13317475 32.875 37.75 C35.45370617 42.75864084 37.38300086 47.61000286 39 53 C39.33 53 39.66 53 40 53 C39.34 52.01 38.68 51.02 38 50 C38.33 49.01 38.66 48.02 39 47 C41.82903939 48.41451969 42.52094226 50.22676673 44 53 C44.309375 54.051875 44.61875 55.10375 44.9375 56.1875 C45.7147488 59.08784049 45.7147488 59.08784049 47.9375 60.25 C48.9584375 60.62125 48.9584375 60.62125 50 61 C51.485 61.99 51.485 61.99 53 63 C53 62.34 53 61.68 53 61 C53.99 61 54.98 61 56 61 C56 61.66 56 62.32 56 63 C57.485 63.495 57.485 63.495 59 64 C58.505 65.98 58.505 65.98 58 68 C58.99 67.67 59.98 67.34 61 67 C61.66 67.33 62.32 67.66 63 68 C63.33 67.34 63.66 66.68 64 66 C64 78.87 64 91.74 64 105 C40.9 105 17.8 105 -6 105 C-5.67 103.02 -5.34 101.04 -5 99 C-3.93612887 82.79776592 -8.09294803 68.82959528 -15.875 54.5625 C-17.28797865 51.34404862 -17.24924038 50.279256 -16 47 C-14.50369913 44.21072834 -12.97490568 41.47939872 -11 39 C-10.34 39 -9.68 39 -9 39 C-7.67578036 36.79799468 -6.36573271 34.58938174 -5.0625 32.375 C-4.68931641 31.75753906 -4.31613281 31.14007813 -3.93164062 30.50390625 C-1.68950829 26.66602208 -0.43691823 23.50788649 0 19 C0.66 19 1.32 19 2 19 C2 17.68 2 16.36 2 15 C1.34 15 0.68 15 0 15 C-1.75 13.0625 -1.75 13.0625 -3 10 C-2.26454034 2.26454034 -2.26454034 2.26454034 0 0 Z " fill="#5EC9DF" transform="translate(64,23)"/>
<path d="M0 0 C0.33 0 0.66 0 1 0 C1.19622241 4.21878192 0.80230168 7.17010894 -1 11 C1.70879335 12.35439668 4.00933268 12.06501451 7 12 C7.87436418 10.26424351 7.87436418 10.26424351 8 8 C6.14835964 5.24743206 6.14835964 5.24743206 4 3 C7.49889647 3 8.0553603 3.54120332 10.625 5.75 C11.23601563 6.26046875 11.84703125 6.7709375 12.4765625 7.296875 C14.17538747 9.19607419 14.5998787 10.51275949 15 13 C15.66 13 16.32 13 17 13 C17 14.32 17 15.64 17 17 C16.34 17 15.68 17 15 17 C15.07863281 17.83917969 15.15726562 18.67835937 15.23828125 19.54296875 C14.94411013 23.81086116 13.33989528 26.72768754 11.1875 30.3125 C10.83107422 30.94478516 10.47464844 31.57707031 10.10742188 32.22851562 C7.39764724 36.86745092 7.39764724 36.86745092 4 38 C1.4338029 41.92477204 -0.6779016 45.24390878 -1 50 C-0.03888079 52.51458983 0.95844524 54.75125523 2.1875 57.125 C2.84334934 58.45661248 3.49567753 59.7899648 4.14453125 61.125 C4.46373535 61.77984375 4.78293945 62.4346875 5.11181641 63.109375 C9.1158072 71.63243843 11.17876777 79.5328873 11.1875 88.9375 C11.19974609 89.62779297 11.21199219 90.31808594 11.22460938 91.02929688 C11.23787472 95.69427604 10.53833213 98.3850036 9 103 C-10.14 103 -29.28 103 -49 103 C-49.185625 96.07 -49.37125 89.14 -49.5625 82 C-49.64443604 79.82792969 -49.72637207 77.65585938 -49.81079102 75.41796875 C-50.10751413 61.71274348 -50.10751413 61.71274348 -46.95654297 56.83984375 C-44.71984631 54.85166894 -42.66930005 53.3374922 -40 52 C-40.96776098 48.20452079 -40.96776098 48.20452079 -43 45 C-43 43.33333333 -43 41.66666667 -43 40 C-43.29044914 38.65667272 -43.60955794 37.31774196 -44 36 C-43.34 36 -42.68 36 -42 36 C-42.61896811 32.40224787 -43.59924684 29.24298739 -45 25.875 C-46.08194112 23.25765713 -47.10385187 20.6884444 -48 18 C-46.9609375 16.24609375 -46.9609375 16.24609375 -45.375 14.4375 C-44.61316406 13.53837891 -44.61316406 13.53837891 -43.8359375 12.62109375 C-39.36949083 8.67731637 -34.4780235 8.55766833 -28.7734375 8.6953125 C-20.43952961 9.61086858 -15.43196688 15.04795119 -10 21 C-9.76925781 19.94039062 -9.53851563 18.88078125 -9.30078125 17.7890625 C-8.97247053 16.40077719 -8.64298175 15.0127701 -8.3125 13.625 C-8.16361328 12.92632812 -8.01472656 12.22765625 -7.86132812 11.5078125 C-7.36328125 9.4765625 -7.36328125 9.4765625 -6 6 C-3.40625 4.65625 -3.40625 4.65625 -1 4 C-0.11306697 1.95894361 -0.11306697 1.95894361 0 0 Z " fill="#30205C" transform="translate(49,25)"/>
<path d="M0 0 C1.34888732 0.00015905 2.69778075 0.00584927 4.04663086 0.01586914 C5.10991859 0.01799156 5.10991859 0.01799156 6.19468689 0.02015686 C8.46699173 0.02577096 10.73919936 0.03832576 13.01147461 0.05102539 C14.54858257 0.05603858 16.08569206 0.0606018 17.62280273 0.06469727 C21.39823103 0.07574497 25.17358632 0.09301898 28.94897461 0.11352539 C28.97210859 11.68313867 28.98989511 23.25274649 29.00078678 34.82237816 C29.00601329 40.19417511 29.01310675 45.56595628 29.02441406 50.93774414 C29.03525115 56.11835511 29.0412532 61.29895087 29.04385185 66.4795723 C29.04570461 68.45959335 29.04932239 70.43961354 29.05470467 72.41962814 C29.06192597 75.18528822 29.06296508 77.9508848 29.0625 80.71655273 C29.06609528 81.54157791 29.06969055 82.36660309 29.07339478 83.21662903 C29.06302677 88.88542107 29.06302677 88.88542107 27.94897461 91.11352539 C26.29897461 91.11352539 24.64897461 91.11352539 22.94897461 91.11352539 C22.94897461 89.79352539 22.94897461 88.47352539 22.94897461 87.11352539 C21.95897461 86.61852539 21.95897461 86.61852539 20.94897461 86.11352539 C20.94897461 85.45352539 20.94897461 84.79352539 20.94897461 84.11352539 C19.95897461 84.11352539 18.96897461 84.11352539 17.94897461 84.11352539 C17.94897461 84.77352539 17.94897461 85.43352539 17.94897461 86.11352539 C12.63930147 83.83795119 9.60120912 80.16540066 6.94897461 75.11352539 C6.26147461 72.80102539 6.26147461 72.80102539 5.94897461 71.11352539 C5.28897461 71.11352539 4.62897461 71.11352539 3.94897461 71.11352539 C4.44397461 72.25821289 4.44397461 72.25821289 4.94897461 73.42602539 C5.94897461 76.11352539 5.94897461 76.11352539 5.94897461 79.11352539 C3.48259733 76.40051039 2.04050047 74.44159212 1.04663086 70.87915039 C-0.30734081 66.23420844 -2.41787627 62.31443338 -4.74829102 58.09985352 C-6.04425573 55.64533407 -7.02929765 53.62282365 -7.14868164 50.82446289 C-5.35487842 48.02842797 -2.92493083 47.78404875 0.19897461 46.92602539 C1.33850586 46.6024707 2.47803711 46.27891602 3.65209961 45.94555664 C4.74006836 45.67098633 5.82803711 45.39641602 6.94897461 45.11352539 C8.23094727 44.78094727 8.23094727 44.78094727 9.53881836 44.44165039 C12.36037614 44.05751611 14.49160636 44.42318859 17.26147461 45.05102539 C18.14448242 45.24567383 19.02749023 45.44032227 19.93725586 45.64086914 C20.93305664 45.87483398 20.93305664 45.87483398 21.94897461 46.11352539 C22.27897461 43.14352539 22.60897461 40.17352539 22.94897461 37.11352539 C10.12639097 36.57236125 -0.41936236 37.06794255 -11.05102539 45.11352539 C-11.38102539 44.12352539 -11.71102539 43.13352539 -12.05102539 42.11352539 C-14.03102539 43.10352539 -16.01102539 44.09352539 -18.05102539 45.11352539 C-17.64110352 45.71680664 -17.23118164 46.32008789 -16.80883789 46.94165039 C-16.0005957 48.14047852 -16.0005957 48.14047852 -15.17602539 49.36352539 C-14.64235352 50.15243164 -14.10868164 50.94133789 -13.55883789 51.75415039 C-10.93690461 55.85686464 -10.93690461 55.85686464 -10.05102539 58.11352539 C-11.05102539 61.11352539 -11.05102539 61.11352539 -13.05102539 62.11352539 C-13.54731445 61.08614258 -14.04360352 60.05875977 -14.55493164 59.00024414 C-18.2161018 51.5065839 -21.94733734 44.32501039 -26.70336914 37.44555664 C-28.13353966 34.97073983 -28.65606729 32.92822682 -29.05102539 30.11352539 C-27.73102539 31.43352539 -26.41102539 32.75352539 -25.05102539 34.11352539 C-23.60348284 32.66598284 -23.49368978 31.07389627 -23.05102539 29.11352539 C-24.04102539 29.44352539 -25.03102539 29.77352539 -26.05102539 30.11352539 C-26.71102539 29.45352539 -27.37102539 28.79352539 -28.05102539 28.11352539 C-25.74102539 26.79352539 -23.43102539 25.47352539 -21.05102539 24.11352539 C-21.05102539 20.81352539 -21.05102539 17.51352539 -21.05102539 14.11352539 C-19.40102539 14.44352539 -17.75102539 14.77352539 -16.05102539 15.11352539 C-15.72102539 17.42352539 -15.39102539 19.73352539 -15.05102539 22.11352539 C-12.29389525 22.82250171 -10.36659204 23.17663872 -7.55102539 22.61352539 C-4.00091271 21.90350285 -1.26469055 22.50669281 1.94897461 24.11352539 C2.27897461 23.45352539 2.60897461 22.79352539 2.94897461 22.11352539 C2.94897461 22.77352539 2.94897461 23.43352539 2.94897461 24.11352539 C3.60897461 24.11352539 4.26897461 24.11352539 4.94897461 24.11352539 C4.94897461 23.12352539 4.94897461 22.13352539 4.94897461 21.11352539 C3.29897461 21.11352539 1.64897461 21.11352539 -0.05102539 21.11352539 C-0.05102539 20.45352539 -0.05102539 19.79352539 -0.05102539 19.11352539 C-0.71102539 19.11352539 -1.37102539 19.11352539 -2.05102539 19.11352539 C-2.38102539 17.13352539 -2.71102539 15.15352539 -3.05102539 13.11352539 C-2.39102539 13.11352539 -1.73102539 13.11352539 -1.05102539 13.11352539 C-1.54602539 12.43290039 -2.04102539 11.75227539 -2.55102539 11.05102539 C-4.36530762 7.49805603 -4.35406606 5.05305409 -4.05102539 1.11352539 C-3.05102539 0.11352539 -3.05102539 0.11352539 0 0 Z " fill="#5FC8DC" transform="translate(99.051025390625,-0.113525390625)"/>
<path d="M0 0 C1.15837626 4.05431692 0.83691257 6.21812119 -1 10 C-1.94746094 9.82210937 -1.94746094 9.82210937 -2.9140625 9.640625 C-11.33743847 8.42688207 -18.02799022 10.29371247 -26 13 C-26.99 13.33 -27.98 13.66 -29 14 C-28.3920301 18.06301833 -27.04823248 21.13317475 -25.125 24.75 C-22.54629383 29.75864084 -20.61699914 34.61000286 -19 40 C-18.67 40 -18.34 40 -18 40 C-18.66 39.01 -19.32 38.02 -20 37 C-19.67 36.01 -19.34 35.02 -19 34 C-16.17096061 35.41451969 -15.47905774 37.22676673 -14 40 C-13.690625 41.051875 -13.38125 42.10375 -13.0625 43.1875 C-12.2852512 46.08784049 -12.2852512 46.08784049 -10.0625 47.25 C-9.381875 47.4975 -8.70125 47.745 -8 48 C-7.01 48.66 -6.02 49.32 -5 50 C-5 49.34 -5 48.68 -5 48 C-4.01 48 -3.02 48 -2 48 C-2 48.66 -2 49.32 -2 50 C-1.01 50.33 -0.02 50.66 1 51 C0.67 52.32 0.34 53.64 0 55 C0.99 54.67 1.98 54.34 3 54 C3.99 54.495 3.99 54.495 5 55 C5.495 54.01 5.495 54.01 6 53 C6 65.87 6 78.74 6 92 C-5.55 92 -17.1 92 -29 92 C-30.81128748 81.13227513 -30.81128748 81.13227513 -30 76 C-27.625 73.5 -27.625 73.5 -25 72 C-24.01 71.01 -24.01 71.01 -23 70 C-23 69.34 -23 68.68 -23 68 C-21.56496445 67.63597631 -20.12683494 67.28413409 -18.6875 66.9375 C-17.88699219 66.74027344 -17.08648437 66.54304688 -16.26171875 66.33984375 C-14 66 -14 66 -11 67 C-10.505 67.495 -10.505 67.495 -10 68 C-9.67 67.34 -9.34 66.68 -9 66 C-8.01 66 -7.02 66 -6 66 C-3.70053583 69.44919626 -3.19230965 72.1381022 -2.375 76.1875 C-2.11460938 77.45980469 -1.85421875 78.73210937 -1.5859375 80.04296875 C-1.39257812 81.01878906 -1.19921875 81.99460937 -1 83 C-2.18710765 75.72334043 -2.18710765 75.72334043 -4.125 68.625 C-5.0592234 65.8223298 -5.47397823 63.92286576 -5 61 C-3 59.1875 -3 59.1875 -1 58 C-4.08009879 58 -6.31135136 59.5972268 -9 61 C-8.01 61 -7.02 61 -6 61 C-6.33 62.32 -6.66 63.64 -7 65 C-12.445 65.495 -12.445 65.495 -18 66 C-18 65.01 -18 64.02 -18 63 C-19.6396875 64.0209375 -19.6396875 64.0209375 -21.3125 65.0625 C-23.17578125 66.22265625 -23.17578125 66.22265625 -25 67 C-26.485 66.505 -26.485 66.505 -28 66 C-29.65 67.98 -31.3 69.96 -33 72 C-33.66 71.67 -34.32 71.34 -35 71 C-34.57540327 68.74752939 -34.13481972 66.49806835 -33.6875 64.25 C-33.44386719 62.99703125 -33.20023438 61.7440625 -32.94921875 60.453125 C-32 57 -32 57 -30.33203125 54.796875 C-29.89246094 54.20390625 -29.45289062 53.6109375 -29 53 C-29.28347626 51.00087392 -29.28347626 51.00087392 -30 49 C-29.94586078 47.45703224 -29.86035603 45.91496821 -29.75 44.375 C-29.65726387 39.14313644 -31.26337097 35.76572378 -33.90625 31.32421875 C-35.1619811 28.65579016 -35.27354229 26.91615619 -35 24 C-34.67 23.34 -34.34 22.68 -34 22 C-36.18610882 17.62778237 -38.32241995 14.28355362 -42 11 C-41.375 9.125 -41.375 9.125 -40 7 C-36.875 5.75 -36.875 5.75 -34 5 C-33.67 5.99 -33.34 6.98 -33 8 C-32.030625 7.236875 -31.06125 6.47375 -30.0625 5.6875 C-20.60112889 -0.90735669 -11.10104094 -0.34411952 0 0 Z " fill="#C2D2F3" transform="translate(122,36)"/>
<path d="M0 0 C0.99 0 1.98 0 3 0 C3 0.66 3 1.32 3 2 C3.99 2.33 4.98 2.66 6 3 C5.67 4.32 5.34 5.64 5 7 C5.99 6.67 6.98 6.34 8 6 C8.66 6.33 9.32 6.66 10 7 C10.33 6.34 10.66 5.68 11 5 C11 17.87 11 30.74 11 44 C-0.55 44 -12.1 44 -24 44 C-25.81128748 33.13227513 -25.81128748 33.13227513 -25 28 C-22.625 25.5 -22.625 25.5 -20 24 C-19.34 23.34 -18.68 22.68 -18 22 C-18 21.34 -18 20.68 -18 20 C-16.56496445 19.63597631 -15.12683494 19.28413409 -13.6875 18.9375 C-12.48673828 18.64166016 -12.48673828 18.64166016 -11.26171875 18.33984375 C-9 18 -9 18 -6 19 C-5.67 19.33 -5.34 19.66 -5 20 C-4.67 19.34 -4.34 18.68 -4 18 C-3.01 18 -2.02 18 -1 18 C1.29946417 21.44919626 1.80769035 24.1381022 2.625 28.1875 C3.01558594 30.09595703 3.01558594 30.09595703 3.4140625 32.04296875 C3.60742188 33.01878906 3.80078125 33.99460938 4 35 C2.81289235 27.72334043 2.81289235 27.72334043 0.875 20.625 C-0.0592234 17.8223298 -0.47397823 15.92286576 0 13 C2 11.1875 2 11.1875 4 10 C3.67 9.01 3.34 8.02 3 7 C2.34 7 1.68 7 1 7 C0.67 4.69 0.34 2.38 0 0 Z " fill="#FAFAFA" transform="translate(117,84)"/>
<path d="M0 0 C33.32149464 -1.58046615 33.32149464 -1.58046615 48 8 C48.495 8.99 48.495 8.99 49 10 C34.05983941 16.86275669 18.17011705 21.20697978 2 24 C1.67 23.01 1.34 22.02 1 21 C0.67 21 0.34 21 0 21 C0 14.07 0 7.14 0 0 Z " fill="#63CEE1" transform="translate(0,0)"/>
<path d="M0 0 C-0.32493615 3.5742977 -0.63870686 5.55712453 -2.9375 8.375 C-5 10 -5 10 -7 10 C-7.19335938 11.07121094 -7.38671875 12.14242187 -7.5859375 13.24609375 C-7.84850255 14.64331489 -8.11154825 16.04044578 -8.375 17.4375 C-8.56449219 18.49807617 -8.56449219 18.49807617 -8.7578125 19.58007812 C-9.10622243 21.40052 -9.547043 23.20271648 -10 25 C-10.99 25.495 -10.99 25.495 -12 26 C-12.4125 25.46890625 -12.825 24.9378125 -13.25 24.390625 C-17.96316864 18.62540979 -22.14685656 14.60145795 -29.7421875 13.66015625 C-35.18486351 13.47578376 -39.43074779 13.7680899 -44 17 C-46.34325664 19.55139853 -46.34325664 19.55139853 -48 22 C-46.96578219 24.59024552 -45.92666424 27.17706064 -44.859375 29.75390625 C-44.49328125 30.68074219 -44.1271875 31.60757813 -43.75 32.5625 C-43.37359375 33.49191406 -42.9971875 34.42132813 -42.609375 35.37890625 C-41.88673228 38.48719643 -42.43500639 39.33133552 -44 42 C-43.67 42.66 -43.34 43.32 -43 44 C-43.04125 44.763125 -43.0825 45.52625 -43.125 46.3125 C-43.21664115 49.12649363 -43.21664115 49.12649363 -41.375 51.5625 C-40.92125 52.366875 -40.4675 53.17125 -40 54 C-41.15286356 57.25016338 -42.93814074 59.08038357 -45.5625 61.25 C-46.49255859 62.03117187 -46.49255859 62.03117187 -47.44140625 62.828125 C-49 64 -49 64 -50 64 C-50 47.5 -50 31 -50 14 C-32.421875 8.140625 -32.421875 8.140625 -29.22460938 7.07739258 C-27.03638972 6.34627406 -24.85024596 5.60891861 -22.66601562 4.8659668 C-21.60576172 4.50672119 -20.54550781 4.14747559 -19.453125 3.77734375 C-18.50083008 3.45241943 -17.54853516 3.12749512 -16.56738281 2.79272461 C-13.35519583 1.80090537 -10.33833975 1.34774372 -7 1 C-5.88625 0.7215625 -5.88625 0.7215625 -4.75 0.4375 C-3 0 -3 0 0 0 Z " fill="#5FCDE4" transform="translate(50,21)"/>
<path d="M0 0 C5.28099805 3.04421169 10.85879363 7.63888088 12.8125 13.5 C11.39761552 16.26239351 10.00886905 18.30363095 7.8125 20.5 C8.4725 20.83 9.1325 21.16 9.8125 21.5 C9.5340625 22.3971875 9.5340625 22.3971875 9.25 23.3125 C8.59156313 25.66408762 8.59156313 25.66408762 9.8125 28.5 C9.25390625 30.54296875 9.25390625 30.54296875 8.375 32.6875 C7.94380859 33.76064453 7.94380859 33.76064453 7.50390625 34.85546875 C7.27574219 35.39816406 7.04757813 35.94085938 6.8125 36.5 C5.8225 36.5 4.8325 36.5 3.8125 36.5 C3.4825 33.53 3.1525 30.56 2.8125 27.5 C-0.30521927 25.89660152 -1.57761689 25.31025859 -5 26.375 C-6.0828125 26.931875 -6.0828125 26.931875 -7.1875 27.5 C-7.5175 26.84 -7.8475 26.18 -8.1875 25.5 C-7.1975 24.51 -6.2075 23.52 -5.1875 22.5 C-6.8375 22.17 -8.4875 21.84 -10.1875 21.5 C-10.1875 21.17 -10.1875 20.84 -10.1875 20.5 C-7.2175 20.5 -4.2475 20.5 -1.1875 20.5 C-1.8475 18.52 -2.5075 16.54 -3.1875 14.5 C-6.1575 14.83 -9.1275 15.16 -12.1875 15.5 C-11.5275 14.18 -10.8675 12.86 -10.1875 11.5 C-12.4975 11.5 -14.8075 11.5 -17.1875 11.5 C-15.8675 12.82 -14.5475 14.14 -13.1875 15.5 C-15.4975 16.16 -17.8075 16.82 -20.1875 17.5 C-19.5275 18.82 -18.8675 20.14 -18.1875 21.5 C-18.8475 21.83 -19.5075 22.16 -20.1875 22.5 C-21.00131795 20.56305322 -21.81350916 18.62542289 -22.625 16.6875 C-23.07746094 15.60855469 -23.52992187 14.52960937 -23.99609375 13.41796875 C-24.79125013 11.4704874 -25.52229648 9.49561057 -26.1875 7.5 C-25.1484375 5.74609375 -25.1484375 5.74609375 -23.5625 3.9375 C-23.05460937 3.33808594 -22.54671875 2.73867188 -22.0234375 2.12109375 C-16.20511433 -3.01636181 -6.8732888 -3.06988788 0 0 Z " fill="#1C1733" transform="translate(27.1875,35.5)"/>
<path d="M0 0 C1.21236328 0.02707031 1.21236328 0.02707031 2.44921875 0.0546875 C3.37154297 0.08949219 3.37154297 0.08949219 4.3125 0.125 C3.3225 0.62 3.3225 0.62 2.3125 1.125 C1.9825 2.115 1.6525 3.105 1.3125 4.125 C3.9525 3.795 6.5925 3.465 9.3125 3.125 C11.2576 6.04265 11.76526317 7.75037285 12.3125 11.125 C10.6625 11.125 9.0125 11.125 7.3125 11.125 C7.3125 12.115 7.3125 13.105 7.3125 14.125 C7.3125 14.455 7.3125 14.785 7.3125 15.125 C8.055 14.8775 8.7975 14.63 9.5625 14.375 C12.3125 14.125 12.3125 14.125 14.5625 15.6875 C16.63463218 18.57368411 17.08278695 20.60273321 17.3125 24.125 C16.9825 24.785 16.6525 25.445 16.3125 26.125 C15.3225 26.125 14.3325 26.125 13.3125 26.125 C13.3125 28.105 13.3125 30.085 13.3125 32.125 C12.9825 32.125 12.6525 32.125 12.3125 32.125 C11.6525 35.095 10.9925 38.065 10.3125 41.125 C9.6525 40.795 8.9925 40.465 8.3125 40.125 C8.3125 39.465 8.3125 38.805 8.3125 38.125 C6.8275 38.62 6.8275 38.62 5.3125 39.125 C5.3125 38.465 5.3125 37.805 5.3125 37.125 C4.4153125 36.691875 4.4153125 36.691875 3.5 36.25 C1.3125 35.125 1.3125 35.125 -1.6875 33.125 C-1.6875 31.805 -1.6875 30.485 -1.6875 29.125 C-2.3475 29.455 -3.0075 29.785 -3.6875 30.125 C-3.6875 29.135 -3.6875 28.145 -3.6875 27.125 C-4.3475 27.125 -5.0075 27.125 -5.6875 27.125 C-5.666875 25.8875 -5.64625 24.65 -5.625 23.375 C-5.61981807 20.43684551 -5.84924327 17.95411648 -6.6875 15.125 C-6.6875 14.135 -6.6875 13.145 -6.6875 12.125 C-7.31856429 10.11348259 -7.98123761 8.11136298 -8.6875 6.125 C-6.3775 5.465 -4.0675 4.805 -1.6875 4.125 C-3.6675 3.465 -5.6475 2.805 -7.6875 2.125 C-4.48369983 -0.01086678 -3.66810033 -0.10632175 0 0 Z " fill="#E5E7E8" transform="translate(14.6875,45.875)"/>
<path d="M0 0 C1.65 0.33 3.3 0.66 5 1 C5 4.63 5 8.26 5 12 C5.66 12 6.32 12 7 12 C9 15 9 15 9.4375 18.0625 C9.623125 19.031875 9.80875 20.00125 10 21 C10.99 21.66 11.98 22.32 13 23 C13 23.66 13 24.32 13 25 C15.49552484 24.21869929 15.49552484 24.21869929 18 23 C18.33 22.01 18.66 21.02 19 20 C21.83475186 18.13691934 24.0893778 17.75131176 27.44140625 17.76953125 C28.27220703 17.77146484 29.10300781 17.77339844 29.95898438 17.77539062 C30.81814453 17.78763672 31.67730469 17.79988281 32.5625 17.8125 C33.85704102 17.8134668 33.85704102 17.8134668 35.17773438 17.81445312 C41.57762277 17.85920759 41.57762277 17.85920759 45 19 C46.50662097 22.01324195 46.17770373 24.68286377 46 28 C45.34 28.66 44.68 29.32 44 30 C44 27.69 44 25.38 44 23 C31.17741636 22.45883586 20.63166304 22.95441716 10 31 C9.67 30.01 9.34 29.02 9 28 C7.02 28.99 5.04 29.98 3 31 C3.40992187 31.60328125 3.81984375 32.2065625 4.2421875 32.828125 C5.05042969 34.02695313 5.05042969 34.02695313 5.875 35.25 C6.40867187 36.03890625 6.94234375 36.8278125 7.4921875 37.640625 C10.11412078 41.74333925 10.11412078 41.74333925 11 44 C10 47 10 47 8 48 C7.50371094 46.97261719 7.00742188 45.94523437 6.49609375 44.88671875 C2.83492359 37.39305851 -0.89631195 30.211485 -5.65234375 23.33203125 C-7.08251427 20.85721444 -7.60504189 18.81470143 -8 16 C-6.68 17.32 -5.36 18.64 -4 20 C-2.55245745 18.55245745 -2.44266439 16.96037087 -2 15 C-2.99 15.33 -3.98 15.66 -5 16 C-5.66 15.34 -6.32 14.68 -7 14 C-4.69 12.68 -2.38 11.36 0 10 C0 6.7 0 3.4 0 0 Z " fill="#31315B" transform="translate(78,14)"/>
<path d="M0 0 C6.27 0 12.54 0 19 0 C19 9.57 19 19.14 19 29 C13.35978694 28.29497337 9.20885862 27.62776832 4 26 C4 24.35 4 22.7 4 21 C3.67 21.66 3.34 22.32 3 23 C2.01 23 1.02 23 0 23 C0 23.66 0 24.32 0 25 C-0.99 24.67 -1.98 24.34 -3 24 C-2.34 24 -1.68 24 -1 24 C-1.20625 23.21625 -1.4125 22.4325 -1.625 21.625 C-1.74875 20.75875 -1.8725 19.8925 -2 19 C-1.34 18.34 -0.68 17.68 0 17 C0 17.99 0 18.98 0 20 C0.66 20 1.32 20 2 20 C2.33513594 17.20980136 2.33513594 17.20980136 2 14 C1.29875 13.175 0.5975 12.35 -0.125 11.5 C-0.74375 10.675 -1.3625 9.85 -2 9 C-1.25 5.875 -1.25 5.875 0 3 C0 2.01 0 1.02 0 0 Z " fill="#FDF888" transform="translate(109,0)"/>
<path d="M0 0 C0.98484375 0.19464844 1.9696875 0.38929687 2.984375 0.58984375 C3.73203125 0.74582031 4.4796875 0.90179688 5.25 1.0625 C5.58 0.4025 5.91 -0.2575 6.25 -0.9375 C5.59 2.6925 4.93 6.3225 4.25 10.0625 C2.6 10.3925 0.95 10.7225 -0.75 11.0625 C-0.75 9.7425 -0.75 8.4225 -0.75 7.0625 C-1.41 6.7325 -2.07 6.4025 -2.75 6.0625 C-3.08 7.0525 -3.41 8.0425 -3.75 9.0625 C-6.72 9.0625 -9.69 9.0625 -12.75 9.0625 C-12.90149298 12.69135324 -12.90149298 12.69135324 -11.75 16.0625 C-13.4 16.0625 -15.05 16.0625 -16.75 16.0625 C-15.19499019 19.87934226 -12.71404505 22.25445732 -9.75 25.0625 C-9.75 24.4025 -9.75 23.7425 -9.75 23.0625 C-5 24.9375 -5 24.9375 -2.75 26.0625 C-1.76 23.0925 -0.77 20.1225 0.25 17.0625 C0.58 17.0625 0.91 17.0625 1.25 17.0625 C1.375 19.9375 1.375 19.9375 1.25 23.0625 C0.59 23.7225 -0.07 24.3825 -0.75 25.0625 C-0.73435123 27.21722873 -0.73435123 27.21722873 -0.3125 29.5625 C0.35049628 33.86150744 0.35049628 33.86150744 -0.75 36.0625 C0.10464844 36.19527344 0.95929688 36.32804687 1.83984375 36.46484375 C2.94457031 36.64144531 4.04929687 36.81804687 5.1875 37 C6.28964844 37.17402344 7.39179687 37.34804687 8.52734375 37.52734375 C11.25 38.0625 11.25 38.0625 12.25 39.0625 C11.96269945 41.40194736 11.63063221 43.7364143 11.25 46.0625 C9.6 46.0625 7.95 46.0625 6.25 46.0625 C6.25 44.7425 6.25 43.4225 6.25 42.0625 C5.59 41.7325 4.93 41.4025 4.25 41.0625 C4.25 40.4025 4.25 39.7425 4.25 39.0625 C3.26 39.0625 2.27 39.0625 1.25 39.0625 C1.25 39.7225 1.25 40.3825 1.25 41.0625 C-4.05967314 38.7869258 -7.09776549 35.11437527 -9.75 30.0625 C-10.4375 27.75 -10.4375 27.75 -10.75 26.0625 C-11.41 26.0625 -12.07 26.0625 -12.75 26.0625 C-12.42 26.825625 -12.09 27.58875 -11.75 28.375 C-10.75 31.0625 -10.75 31.0625 -10.75 34.0625 C-13.21637728 31.34948499 -14.65847414 29.39056673 -15.65234375 25.828125 C-17.00631542 21.18318305 -19.11685088 17.26340799 -21.44726562 13.04882812 C-22.74270359 10.59530633 -23.72747512 8.57017619 -23.8515625 5.7734375 C-22.0453563 2.96805339 -19.57412047 2.72980758 -16.4375 1.875 C-15.28636719 1.55144531 -14.13523437 1.22789063 -12.94921875 0.89453125 C-11.89347656 0.61996094 -10.83773437 0.34539063 -9.75 0.0625 C-9.07066406 -0.15921875 -8.39132813 -0.3809375 -7.69140625 -0.609375 C-4.96407943 -1.07033164 -2.69965433 -0.54635861 0 0 Z " fill="#5F352D" transform="translate(115.75,44.9375)"/>
<path d="M0 0 C0.66 0.33 1.32 0.66 2 1 C1.34 2.65 0.68 4.3 0 6 C0.66 6.33 1.32 6.66 2 7 C1.67 9.64 1.34 12.28 1 15 C2.32 15 3.64 15 5 15 C6 18 6 18 5 21 C5.5775 21.268125 6.155 21.53625 6.75 21.8125 C9 23 9 23 11.125 24.625 C12.88127926 26.19712122 12.88127926 26.19712122 15 26 C14.01 28.475 14.01 28.475 13 31 C9.63279613 29.60667426 8.0140476 28.0210714 6 25 C5.11064623 28.303314 4.53725895 31.62294375 4 35 C4.66 35 5.32 35 6 35 C6 32.69 6 30.38 6 28 C6.33 28 6.66 28 7 28 C7 32.62 7 37.24 7 42 C5.515 42.495 5.515 42.495 4 43 C3.67 44.98 3.34 46.96 3 49 C3.99 48.34 4.98 47.68 6 47 C8.1875 47.375 8.1875 47.375 10 48 C5.91160897 52.29281059 3.02134944 54.31575575 -3 55 C-3.66 56.98 -4.32 58.96 -5 61 C-5.66 61 -6.32 61 -7 61 C-6.91621094 60.41992188 -6.83242187 59.83984375 -6.74609375 59.2421875 C-6.13790579 54.57684697 -5.92794335 50.64557883 -7 46 C-5.68 46 -4.36 46 -3 46 C-2.67 46.33 -2.34 46.66 -2 47 C-2.33 44.03 -2.66 41.06 -3 38 C-6.03268602 40.83656989 -6.03268602 40.83656989 -8 44 C-9.38026906 29.0044843 -9.38026906 29.0044843 -5.99609375 24.08984375 C-3.75002407 22.15309196 -1.5574407 20.4969147 1 19 C0.03223902 15.20452079 0.03223902 15.20452079 -2 12 C-2 10.33333333 -2 8.66666667 -2 7 C-2.29044914 5.65667272 -2.60955794 4.31774196 -3 3 C-2.34 3 -1.68 3 -1 3 C-0.67 2.01 -0.34 1.02 0 0 Z " fill="#0A0A1B" transform="translate(8,58)"/>
<path d="M0 0 C3.21079428 1.03204102 4.59940291 2.58748662 6.3125 5.375 C8 9 8 9 7.75 11.4375 C7.5025 11.953125 7.255 12.46875 7 13 C7.66 12.67 8.32 12.34 9 12 C9 12.99 9 13.98 9 15 C9.66 15 10.32 15 11 15 C10.69029106 20.38493928 7.64569893 22.82467404 3.9375 26.3125 C3.36966797 26.86228516 2.80183594 27.41207031 2.21679688 27.97851562 C0.82009075 29.32827365 -0.58878837 30.66541525 -2 32 C-2.99 31.34 -3.98 30.68 -5 30 C-4.67 28.02 -4.34 26.04 -4 24 C-4.928125 23.896875 -5.85625 23.79375 -6.8125 23.6875 C-10.03254358 22.9929808 -11.02579865 22.52259061 -13 20 C-12.505 18.515 -12.505 18.515 -12 17 C-10.02 16.67 -8.04 16.34 -6 16 C-5.89042969 15.22914062 -5.78085937 14.45828125 -5.66796875 13.6640625 C-5.50941406 12.66117188 -5.35085937 11.65828125 -5.1875 10.625 C-5.03667969 9.62726563 -4.88585938 8.62953125 -4.73046875 7.6015625 C-4 5 -4 5 -1 3 C-0.67 2.01 -0.34 1.02 0 0 Z " fill="#4C3981" transform="translate(44,80)"/>
<path d="M0 0 C0.99 0 1.98 0 3 0 C3 0.66 3 1.32 3 2 C3.99 2.33 4.98 2.66 6 3 C5.67 4.32 5.34 5.64 5 7 C5.99 6.67 6.98 6.34 8 6 C8.66 6.33 9.32 6.66 10 7 C10.33 6.34 10.66 5.68 11 5 C11 17.87 11 30.74 11 44 C9.35 43.67 7.7 43.34 6 43 C5.85377197 42.27820557 5.70754395 41.55641113 5.55688477 40.81274414 C4.89601056 37.56185121 4.22933554 34.31217511 3.5625 31.0625 C3.33240234 29.92619141 3.10230469 28.78988281 2.86523438 27.61914062 C2.53168945 25.99975586 2.53168945 25.99975586 2.19140625 24.34765625 C1.98717041 23.34742432 1.78293457 22.34719238 1.57250977 21.31665039 C1.22468578 19.05241475 1.22468578 19.05241475 0 18 C-0.3125 15.625 -0.3125 15.625 0 13 C2 11.1875 2 11.1875 4 10 C3.67 9.01 3.34 8.02 3 7 C2.34 7 1.68 7 1 7 C0.67 4.69 0.34 2.38 0 0 Z " fill="#F4EF84" transform="translate(117,84)"/>
<path d="M0 0 C1.79244141 0.01740234 1.79244141 0.01740234 3.62109375 0.03515625 C5.41740234 0.04869141 5.41740234 0.04869141 7.25 0.0625 C8.17683594 0.07410156 9.10367188 0.08570313 10.05859375 0.09765625 C11.17578125 4.80859375 11.17578125 4.80859375 10.12109375 7.41015625 C9.77046875 7.96703125 9.41984375 8.52390625 9.05859375 9.09765625 C9.73921875 9.79890625 10.41984375 10.50015625 11.12109375 11.22265625 C13.05859375 14.09765625 13.05859375 14.09765625 12.80859375 17.41015625 C12.56109375 18.29703125 12.31359375 19.18390625 12.05859375 20.09765625 C11.06859375 19.76765625 10.07859375 19.43765625 9.05859375 19.09765625 C9.05859375 20.74765625 9.05859375 22.39765625 9.05859375 24.09765625 C8.06859375 24.42765625 7.07859375 24.75765625 6.05859375 25.09765625 C5.72859375 23.77765625 5.39859375 22.45765625 5.05859375 21.09765625 C3.40859375 21.09765625 1.75859375 21.09765625 0.05859375 21.09765625 C0.05859375 20.43765625 0.05859375 19.77765625 0.05859375 19.09765625 C-0.60140625 19.09765625 -1.26140625 19.09765625 -1.94140625 19.09765625 C-2.27140625 17.11765625 -2.60140625 15.13765625 -2.94140625 13.09765625 C-2.28140625 13.09765625 -1.62140625 13.09765625 -0.94140625 13.09765625 C-1.43640625 12.41703125 -1.93140625 11.73640625 -2.44140625 11.03515625 C-4.25568848 7.48218689 -4.24444692 5.03718495 -3.94140625 1.09765625 C-2.94140625 0.09765625 -2.94140625 0.09765625 0 0 Z " fill="#454545" transform="translate(98.94140625,-0.09765625)"/>
<path d="M0 0 C0.66 0 1.32 0 2 0 C2 1.32 2 2.64 2 4 C1.01 4 0.02 4 -1 4 C-0.34 5.98 0.32 7.96 1 10 C-0.216875 10.309375 -1.43375 10.61875 -2.6875 10.9375 C-3.42097656 11.12570313 -4.15445313 11.31390625 -4.91015625 11.5078125 C-7 12 -7 12 -9.625 12.3125 C-13.16247522 13.33650598 -15.22726922 15.59696665 -18 18 C-20 18 -20 18 -22 16.5625 C-24.77974608 13.00095034 -25.28673172 9.392231 -26 5 C-26.66 5 -27.32 5 -28 5 C-27.67 3.68 -27.34 2.36 -27 1 C-26.278125 1.185625 -25.55625 1.37125 -24.8125 1.5625 C-22.04530635 2.15834794 -22.04530635 2.15834794 -19.5 1.5 C-15.94988732 0.78997746 -13.21366516 1.39316742 -10 3 C-9.67 2.34 -9.34 1.68 -9 1 C-9 1.66 -9 2.32 -9 3 C-6.69 3.33 -4.38 3.66 -2 4 C-2 3.34 -2 2.68 -2 2 C-1.34 1.34 -0.68 0.68 0 0 Z " fill="#58B7CA" transform="translate(111,21)"/>
<path d="M0 0 C0.66 0 1.32 0 2 0 C4.42857143 7.42857143 4.42857143 7.42857143 3 11 C2.01 10.67 1.02 10.34 0 10 C0 9.34 0 8.68 0 8 C-0.66 8 -1.32 8 -2 8 C-1.649375 8.845625 -1.29875 9.69125 -0.9375 10.5625 C0.27009661 14.99035424 0.07506196 18.84987609 -2 23 C-1.34 23 -0.68 23 0 23 C0.66 21.02 1.32 19.04 2 17 C3.8125 17.1875 3.8125 17.1875 6 18 C6.4125 18.845625 6.825 19.69125 7.25 20.5625 C8.7003524 23.18732236 8.7003524 23.18732236 10.96484375 23.328125 C12.97948383 23.31396233 14.9920442 23.16458654 17 23 C17 24.32 17 25.64 17 27 C15.68 27.33 14.36 27.66 13 28 C13.33 29.32 13.66 30.64 14 32 C8.39 32 2.78 32 -3 32 C-3.08105241 27.79127852 -3.14053316 23.5841237 -3.1875 19.375 C-3.21263672 18.18519531 -3.23777344 16.99539062 -3.26367188 15.76953125 C-3.35493909 4.87831038 -3.35493909 4.87831038 0 0 Z " fill="#4C3881" transform="translate(3,96)"/>
<path d="M0 0 C0.66 0 1.32 0 2 0 C2.33 0.66 2.66 1.32 3 2 C3.7425 1.835 4.485 1.67 5.25 1.5 C8 1 8 1 12 1 C12.66 2.98 13.32 4.96 14 7 C12.68 7.99 11.36 8.98 10 10 C10.99 10.33 11.98 10.66 13 11 C13 12.65 13 14.3 13 16 C10.08517222 16.80967438 8.53886783 17.21845993 5.6875 16.0625 C5.130625 15.711875 4.57375 15.36125 4 15 C3.01 15.66 2.02 16.32 1 17 C-2.1875 16.625 -2.1875 16.625 -5 16 C-4.835 15.38125 -4.67 14.7625 -4.5 14.125 C-3.89044904 11.5344084 -3.73635533 10.49433376 -5 8.125 C-6 6 -6 6 -6 2 C-3.92446352 1.4465236 -2.15634036 1 0 1 C0 0.67 0 0.34 0 0 Z " fill="#5072D4" transform="translate(62,6)"/>
<path d="M0 0 C3 1 3 1 4.45703125 3.80078125 C4.90433594 4.95964844 5.35164062 6.11851563 5.8125 7.3125 C6.27269531 8.46363281 6.73289062 9.61476563 7.20703125 10.80078125 C8 14 8 14 7.07421875 16.29296875 C6.71972656 16.85628906 6.36523438 17.41960938 6 18 C6.33 18.66 6.66 19.32 7 20 C6.95875 20.763125 6.9175 21.52625 6.875 22.3125 C6.78335885 25.12649363 6.78335885 25.12649363 8.625 27.5625 C9.07875 28.366875 9.5325 29.17125 10 30 C8.84713644 33.25016338 7.06185926 35.08038357 4.4375 37.25 C3.50744141 38.03117187 3.50744141 38.03117187 2.55859375 38.828125 C1 40 1 40 0 40 C0 26.8 0 13.6 0 0 Z " fill="#5FCDE4" transform="translate(0,45)"/>
<path d="M0 0 C1.32 0.66 2.64 1.32 4 2 C3.01 2.495 3.01 2.495 2 3 C2.99 3.66 3.98 4.32 5 5 C4.01 5.66 3.02 6.32 2 7 C1.67 7.99 1.34 8.98 1 10 C1.66 10 2.32 10 3 10 C3.33 9.01 3.66 8.02 4 7 C3.40546697 16.59453303 3.40546697 16.59453303 0 20 C-4.75 18.125 -4.75 18.125 -7 17 C-7 17.66 -7 18.32 -7 19 C-10.78717347 17.51218185 -12.77407001 15.38011591 -15 12 C-14.67 11.01 -14.34 10.02 -14 9 C-12.68 9 -11.36 9 -10 9 C-10.33 8.67 -10.66 8.34 -11 8 C-11.04063832 6.33382885 -11.042721 4.66611905 -11 3 C-7.52674819 1.8422494 -4.63932552 1.93133348 -1 2 C-0.67 1.34 -0.34 0.68 0 0 Z " fill="#C4A486" transform="translate(113,51)"/>
<path d="M0 0 C0.495 0.99 0.495 0.99 1 2 C1.66 2.33 2.32 2.66 3 3 C1.625 4.5 1.625 4.5 0 6 C-0.66 6 -1.32 6 -2 6 C-1.84329834 6.55461914 -1.68659668 7.10923828 -1.52514648 7.68066406 C-0.8191486 10.20106861 -0.12820255 12.72536308 0.5625 15.25 C0.9327832 16.55904297 0.9327832 16.55904297 1.31054688 17.89453125 C1.53935547 18.73886719 1.76816406 19.58320312 2.00390625 20.453125 C2.21861572 21.22817383 2.4333252 22.00322266 2.65454102 22.80175781 C3.0298967 25.19024018 2.74681558 26.720964 2 29 C0.3528733 26.0227668 -0.45634171 23.34151123 -1.0625 20 C-1.62150709 16.96935 -2.21996897 13.98206553 -3 11 C-3.99 11 -4.98 11 -6 11 C-6.33 11.99 -6.66 12.98 -7 14 C-7.66 14 -8.32 14 -9 14 C-9 13.34 -9 12.68 -9 12 C-12.63 12.33 -16.26 12.66 -20 13 C-19.67 13.99 -19.34 14.98 -19 16 C-19.804375 16.268125 -20.60875 16.53625 -21.4375 16.8125 C-22.283125 17.204375 -23.12875 17.59625 -24 18 C-24.33 18.99 -24.66 19.98 -25 21 C-25.66 21 -26.32 21 -27 21 C-26.67 26.28 -26.34 31.56 -26 37 C-28.11126943 32.77746115 -28.2171997 30.85998477 -28.125 26.25 C-28.10695313 25.07953125 -28.08890625 23.9090625 -28.0703125 22.703125 C-28.04710938 21.81109375 -28.02390625 20.9190625 -28 20 C-29.98 20.33 -31.96 20.66 -34 21 C-33.34 17.37 -32.68 13.74 -32 10 C-31.67 10 -31.34 10 -31 10 C-31 11.98 -31 13.96 -31 16 C-29.88625 14.7625 -29.88625 14.7625 -28.75 13.5 C-26 11 -26 11 -22 11 C-20.18854379 10.11857337 -20.18854379 10.11857337 -18.5 8.9375 C-15.29024566 6.97023121 -15.29024566 6.97023121 -12.5625 7.25 C-12.046875 7.4975 -11.53125 7.745 -11 8 C-11.99 8.66 -12.98 9.32 -14 10 C-10.7 9.67 -7.4 9.34 -4 9 C-3.67 8.01 -3.34 7.02 -3 6 C-3.66 6 -4.32 6 -5 6 C-5.33 6.66 -5.66 7.32 -6 8 C-6 7.34 -6 6.68 -6 6 C-6.66 5.67 -7.32 5.34 -8 5 C-5.09399739 3.74335022 -3.20395416 3 0 3 C0 2.01 0 1.02 0 0 Z " fill="#000000" transform="translate(119,91)"/>
<path d="M0 0 C0.7425 0.763125 1.485 1.52625 2.25 2.3125 C4.4263323 4.4393702 6.52167796 6.2559956 9 8 C9 7.34 9 6.68 9 6 C13.75 7.875 13.75 7.875 16 9 C16.99 6.03 17.98 3.06 19 0 C19.33 0 19.66 0 20 0 C20.125 2.875 20.125 2.875 20 6 C19.34 6.66 18.68 7.32 18 8 C18.01564877 10.15472873 18.01564877 10.15472873 18.4375 12.5 C19.10049628 16.79900744 19.10049628 16.79900744 18 19 C18.85464844 19.13277344 19.70929688 19.26554687 20.58984375 19.40234375 C22.24693359 19.66724609 22.24693359 19.66724609 23.9375 19.9375 C25.03964844 20.11152344 26.14179687 20.28554687 27.27734375 20.46484375 C30 21 30 21 31 22 C30.71269945 24.33944736 30.38063221 26.6739143 30 29 C28.35 29 26.7 29 25 29 C25 27.68 25 26.36 25 25 C24.34 24.67 23.68 24.34 23 24 C23 23.34 23 22.68 23 22 C22.01 22 21.02 22 20 22 C20 22.66 20 23.32 20 24 C14.69032686 21.7244258 11.65223451 18.05187527 9 13 C8.3125 10.6875 8.3125 10.6875 8 9 C7.34 9 6.68 9 6 9 C6.33 9.763125 6.66 10.52625 7 11.3125 C8 14 8 14 8 17 C4.52570529 13.17827582 3.24473932 9.97895726 2 5 C1.35800351 3.32367583 0.70105843 1.65249487 0 0 Z " fill="#19161C" transform="translate(97,62)"/>
<path d="M0 0 C-0.33 0.33 -0.66 0.66 -1 1 C-0.34 1.33 0.32 1.66 1 2 C1.33 1.34 1.66 0.68 2 0 C3.125 2.75 3.125 2.75 4 6 C3.0546875 8.203125 3.0546875 8.203125 2 10 C1.5153125 9.69964844 1.030625 9.39929687 0.53125 9.08984375 C-6.29170922 5.2191265 -10.70713152 6.05219219 -18 8.0625 C-18.99 8.371875 -19.98 8.68125 -21 9 C-22.46726798 5.18510326 -21.43336419 2.70988378 -20 -1 C-4.51162791 -3.00775194 -4.51162791 -3.00775194 0 0 Z " fill="#322260" transform="translate(26,38)"/>
<path d="M0 0 C6.27 0 12.54 0 19 0 C19 3.3 19 6.6 19 10 C12.21156583 10.08592955 5.7294764 9.88255428 -1 9 C-0.67 6.03 -0.34 3.06 0 0 Z " fill="#5FCDE4" transform="translate(109,0)"/>
<path d="M0 0 C3.465 1.98 3.465 1.98 7 4 C7 4.99 7 5.98 7 7 C7.99 6.67 8.98 6.34 10 6 C10 7.32 10 8.64 10 10 C10.19464844 10.65484375 10.38929687 11.3096875 10.58984375 11.984375 C11.11110497 14.54600159 10.55891853 15.85859553 9.5625 18.25 C9.13130859 19.30960938 9.13130859 19.30960938 8.69140625 20.390625 C8.46324219 20.92171875 8.23507813 21.4528125 8 22 C7.01 22 6.02 22 5 22 C4.67 19.03 4.34 16.06 4 13 C0.88228073 11.39660152 -0.39011689 10.81025859 -3.8125 11.875 C-4.534375 12.24625 -5.25625 12.6175 -6 13 C-6.33 12.34 -6.66 11.68 -7 11 C-6.01 10.01 -5.02 9.02 -4 8 C-5.65 7.67 -7.3 7.34 -9 7 C-9 6.67 -9 6.34 -9 6 C-6.03 6 -3.06 6 0 6 C-0.33 4.68 -0.66 3.36 -1 2 C-0.67 1.34 -0.34 0.68 0 0 Z " fill="#020206" transform="translate(26,50)"/>
<path d="M0 0 C0.33 0 0.66 0 1 0 C1.19622241 4.21878192 0.80230168 7.17010894 -1 11 C1.70879335 12.35439668 4.00933268 12.06501451 7 12 C7.87436418 10.26424351 7.87436418 10.26424351 8 8 C6.14835964 5.24743206 6.14835964 5.24743206 4 3 C7.49889647 3 8.0553603 3.54120332 10.625 5.75 C11.23601563 6.26046875 11.84703125 6.7709375 12.4765625 7.296875 C14.17538747 9.19607419 14.5998787 10.51275949 15 13 C14.34 12.67 13.68 12.34 13 12 C12.01 13.485 12.01 13.485 11 15 C6.81900397 17.21346849 2.6709172 17.77398788 -2 18 C-4 16.6875 -4 16.6875 -5 15 C-5 14.34 -5 13.68 -5 13 C-5.66 13 -6.32 13 -7 13 C-7.33 14.32 -7.66 15.64 -8 17 C-7.65225015 8.86265342 -7.65225015 8.86265342 -5.0625 5.4375 C-3 4 -3 4 -1 4 C-0.67 2.68 -0.34 1.36 0 0 Z " fill="#0F1128" transform="translate(49,25)"/>
<path d="M0 0 C5.61 0 11.22 0 17 0 C18 5 18 5 16 10 C11.05 9.67 6.1 9.34 1 9 C1 8.34 1 7.68 1 7 C0.01 6.34 -0.98 5.68 -2 5 C-1.34 4.34 -0.68 3.68 0 3 C0 2.01 0 1.02 0 0 Z " fill="#C0CFEF" transform="translate(105,36)"/>
<path d="M0 0 C0.83080078 0.00193359 1.66160156 0.00386719 2.51757812 0.00585938 C3.37673828 0.01810547 4.23589844 0.03035156 5.12109375 0.04296875 C5.98412109 0.04361328 6.84714844 0.04425781 7.73632812 0.04492188 C14.13621652 0.08967634 14.13621652 0.08967634 17.55859375 1.23046875 C19.06521472 4.2437107 18.73629748 6.91333252 18.55859375 10.23046875 C17.89859375 10.89046875 17.23859375 11.55046875 16.55859375 12.23046875 C16.55859375 9.92046875 16.55859375 7.61046875 16.55859375 5.23046875 C3.73601011 4.68930461 -6.80974321 5.18488591 -17.44140625 13.23046875 C-17.11140625 10.26046875 -16.78140625 7.29046875 -16.44140625 4.23046875 C-15.78140625 4.56046875 -15.12140625 4.89046875 -14.44140625 5.23046875 C-14.44140625 5.89046875 -14.44140625 6.55046875 -14.44140625 7.23046875 C-11.94588141 6.44916804 -11.94588141 6.44916804 -9.44140625 5.23046875 C-9.11140625 4.24046875 -8.78140625 3.25046875 -8.44140625 2.23046875 C-5.60665439 0.36738809 -3.35202845 -0.01821949 0 0 Z " fill="#1B1B32" transform="translate(105.44140625,31.76953125)"/>
<path d="M0 0 C0 0.99 0 1.98 0 3 C0.53363145 7.68409826 1.89203598 11.32653906 3.9375 15.5625 C9 26.12285012 9 26.12285012 9 30 C8.34 30 7.68 30 7 30 C7 29.01 7 28.02 7 27 C6.34 27 5.68 27 5 27 C4.67 26.34 4.34 25.68 4 25 C3.01 25 2.02 25 1 25 C1.37640625 24.42636719 1.7528125 23.85273437 2.140625 23.26171875 C3.28153358 21.02277227 3.28153358 21.02277227 2.171875 18.89453125 C1.70265625 18.20746094 1.2334375 17.52039063 0.75 16.8125 C0.29109375 16.11769531 -0.1678125 15.42289063 -0.640625 14.70703125 C-1.9068603 12.8711166 -1.9068603 12.8711166 -4 12 C-4.33 13.65 -4.66 15.3 -5 17 C-5.66 16.67 -6.32 16.34 -7 16 C-7.6328125 13.49609375 -7.6328125 13.49609375 -8.125 10.4375 C-8.37636719 8.91962891 -8.37636719 8.91962891 -8.6328125 7.37109375 C-8.75398438 6.58863281 -8.87515625 5.80617188 -9 5 C-6.03 3.35 -3.06 1.7 0 0 Z " fill="#0D0C22" transform="translate(48,68)"/>
<path d="M0 0 C1.21236328 0.02707031 1.21236328 0.02707031 2.44921875 0.0546875 C3.37154297 0.08949219 3.37154297 0.08949219 4.3125 0.125 C3.3225 0.62 3.3225 0.62 2.3125 1.125 C1.9825 2.115 1.6525 3.105 1.3125 4.125 C3.9525 3.795 6.5925 3.465 9.3125 3.125 C11.2576 6.04265 11.76526317 7.75037285 12.3125 11.125 C9.0125 10.795 5.7125 10.465 2.3125 10.125 C2.3125 10.785 2.3125 11.445 2.3125 12.125 C-1.0625 12.75 -1.0625 12.75 -4.6875 13.125 C-6.90939824 10.90310176 -7.61348892 9.04017292 -8.6875 6.125 C-6.3775 5.465 -4.0675 4.805 -1.6875 4.125 C-3.6675 3.465 -5.6475 2.805 -7.6875 2.125 C-4.48369983 -0.01086678 -3.66810033 -0.10632175 0 0 Z " fill="#BF8D5A" transform="translate(14.6875,45.875)"/>
<path d="M0 0 C1.65 0.33 3.3 0.66 5 1 C5.33 7.27 5.66 13.54 6 20 C4.02 20.66 2.04 21.32 0 22 C0 21.34 0 20.68 0 20 C-0.99 19.67 -1.98 19.34 -3 19 C-2.67 17.68 -2.34 16.36 -2 15 C-2.99 15.33 -3.98 15.66 -5 16 C-5.66 15.34 -6.32 14.68 -7 14 C-4.69 12.68 -2.38 11.36 0 10 C0 6.7 0 3.4 0 0 Z " fill="#A6886A" transform="translate(78,14)"/>
<path d="M0 0 C0.33 0 0.66 0 1 0 C2.05066804 4.31194166 2.18340146 8.52336779 2.1875 12.9375 C2.19974609 13.62779297 2.21199219 14.31808594 2.22460938 15.02929688 C2.23706114 19.40816814 1.61027921 22.93293116 0 27 C-2.97 27 -5.94 27 -9 27 C-7.68 26.34 -6.36 25.68 -5 25 C-4.34 25.33 -3.68 25.66 -3 26 C-3 25.34 -3 24.68 -3 24 C-4.65 23.67 -6.3 23.34 -8 23 C-7.67 21.35 -7.34 19.7 -7 18 C-5.35 18.33 -3.7 18.66 -2 19 C-2 15.37 -2 11.74 -2 8 C-3.98 8.99 -3.98 8.99 -6 10 C-5.195625 9.278125 -4.39125 8.55625 -3.5625 7.8125 C-0.97707928 4.97484311 -0.31957187 3.72833853 0 0 Z " fill="#060611" transform="translate(58,101)"/>
<path d="M0 0 C0.33 0 0.66 0 1 0 C1.71655029 3.91358426 2.4284924 7.82797631 3.13623047 11.74316406 C3.37748677 13.07412164 3.61998685 14.40485441 3.86376953 15.73535156 C4.21455909 17.6510921 4.56046268 19.56772526 4.90625 21.484375 C5.11572266 22.63647461 5.32519531 23.78857422 5.54101562 24.97558594 C6 28 6 28 6 32 C4.35 32 2.7 32 1 32 C-2.32174955 10.28999401 -2.32174955 10.28999401 0 0 Z " fill="#FFFA89" transform="translate(73,96)"/>
<path d="M0 0 C0.53625 0.37125 1.0725 0.7425 1.625 1.125 C0.965 1.785 0.305 2.445 -0.375 3.125 C0.615 4.115 1.605 5.105 2.625 6.125 C2.295 6.785 1.965 7.445 1.625 8.125 C-1.09765625 8.9765625 -1.09765625 8.9765625 -4.4375 9.75 C-6.09458984 10.14058594 -6.09458984 10.14058594 -7.78515625 10.5390625 C-8.63980469 10.73242188 -9.49445313 10.92578125 -10.375 11.125 C-10.375 10.135 -10.375 9.145 -10.375 8.125 C-11.365 7.465 -12.355 6.805 -13.375 6.125 C-9.71760436 2.03732251 -5.79824972 -2.13619727 0 0 Z " fill="#7C8EB2" transform="translate(104.375,37.875)"/>
<path d="M0 0 C1.32 0 2.64 0 4 0 C5 3 5 3 4.3125 5.9375 C4.209375 6.948125 4.10625 7.95875 4 9 C5.29233607 10.37310707 6.62437146 11.71034824 8 13 C7.80984746 15.21844626 7.58477845 16.41522155 6 18 C1.96839809 18.26293056 0.44107266 18.29404844 -3 16 C-2.68289062 15.29488281 -2.36578125 14.58976562 -2.0390625 13.86328125 C-0.95461714 10.87494121 -0.6035641 8.34930342 -0.375 5.1875 C-0.26285156 3.72376953 -0.26285156 3.72376953 -0.1484375 2.23046875 C-0.09945312 1.49441406 -0.05046875 0.75835938 0 0 Z " fill="#B98754" transform="translate(50,20)"/>
<path d="M0 0 C2.31 0.33 4.62 0.66 7 1 C6.319375 1.763125 5.63875 2.52625 4.9375 3.3125 C4.298125 4.199375 3.65875 5.08625 3 6 C3.33 6.99 3.66 7.98 4 9 C5.65 8.34 7.3 7.68 9 7 C9.33 4.69 9.66 2.38 10 0 C11.9375 0.625 11.9375 0.625 14 2 C15.40540541 7.18918919 15.40540541 7.18918919 14 10 C13.01 9.67 12.02 9.34 11 9 C11 10.65 11 12.3 11 14 C10.01 14.33 9.02 14.66 8 15 C7.67 13.68 7.34 12.36 7 11 C5.35 11 3.7 11 2 11 C2 10.34 2 9.68 2 9 C1.34 9 0.68 9 0 9 C-0.33 7.02 -0.66 5.04 -1 3 C-0.34 3 0.32 3 1 3 C0.67 2.01 0.34 1.02 0 0 Z " fill="#060809" transform="translate(97,10)"/>
<path d="M0 0 C0.33 0 0.66 0 1 0 C1 1.98 1 3.96 1 6 C1.763125 5.175 2.52625 4.35 3.3125 3.5 C6 1 6 1 9 1 C8.34 2.32 7.68 3.64 7 5 C8.65 4.34 10.3 3.68 12 3 C12.33 3.99 12.66 4.98 13 6 C12.195625 6.268125 11.39125 6.53625 10.5625 6.8125 C9.716875 7.204375 8.87125 7.59625 8 8 C7.67 8.99 7.34 9.98 7 11 C6.34 11 5.68 11 5 11 C5.33 16.28 5.66 21.56 6 27 C3.88873057 22.77746115 3.7828003 20.85998477 3.875 16.25 C3.89304687 15.07953125 3.91109375 13.9090625 3.9296875 12.703125 C3.95289062 11.81109375 3.97609375 10.9190625 4 10 C2.02 10.33 0.04 10.66 -2 11 C-1.34 7.37 -0.68 3.74 0 0 Z " fill="#71757C" transform="translate(87,101)"/>
<path d="M0 0 C0.99 0.33 1.98 0.66 3 1 C3 4.63 3 8.26 3 12 C2.01 12 1.02 12 0 12 C0 11.34 0 10.68 0 10 C-0.928125 10.99 -0.928125 10.99 -1.875 12 C-4 14 -4 14 -6 14 C-6.66 13.01 -7.32 12.02 -8 11 C-8.99 11.66 -9.98 12.32 -11 13 C-9.25 9.125 -9.25 9.125 -7 8 C-6.67 7.34 -6.34 6.68 -6 6 C-4.3540349 4.31288577 -2.68762851 2.6454378 -1 1 C-0.67 0.67 -0.34 0.34 0 0 Z " fill="#4E3A7F" transform="translate(43,46)"/>
<path d="M0 0 C5.22927042 4.46026006 7.91322485 9.93475759 11 16 C11.84884766 17.6396875 11.84884766 17.6396875 12.71484375 19.3125 C17 27.70132353 17 27.70132353 17 30 C16.01 30 15.02 30 14 30 C0 3.98257081 0 3.98257081 0 0 Z " fill="#FFFA89" transform="translate(70,34)"/>
<path d="M0 0 C0.81766395 2.45299186 1.02627816 3.87189398 0.5 6.4375 C-0.05526792 9.2832481 0.28409249 11.21591523 1 14 C-0.32 14 -1.64 14 -3 14 C-3.66 15.65 -4.32 17.3 -5 19 C-5.33 19 -5.66 19 -6 19 C-6 13.72 -6 8.44 -6 3 C-4.02 2.01 -2.04 1.02 0 0 Z " fill="#100C1F" transform="translate(6,83)"/>
<path d="M0 0 C2 1 2 1 3.125 4.0625 C3.41375 5.031875 3.7025 6.00125 4 7 C2.90220176 8.15193623 1.79650554 9.29634937 0.6875 10.4375 C0.07261719 11.07558594 -0.54226562 11.71367188 -1.17578125 12.37109375 C-3 14 -3 14 -6 15 C-6.92017937 6.22421525 -6.92017937 6.22421525 -4.6640625 3.22265625 C-3 1.875 -3 1.875 0 0 Z " fill="#F9F88C" transform="translate(6,70)"/>
<path d="M0 0 C0.66 0 1.32 0 2 0 C1.814375 0.78375 1.62875 1.5675 1.4375 2.375 C0.74037734 4.97089775 0.74037734 4.97089775 2 7 C2.99 6.67 3.98 6.34 5 6 C6.89470816 5.9314505 8.7916834 5.91519628 10.6875 5.9375 C11.68136719 5.94652344 12.67523438 5.95554687 13.69921875 5.96484375 C14.83810547 5.98224609 14.83810547 5.98224609 16 6 C15.67 6.66 15.34 7.32 15 8 C12.03 8 9.06 8 6 8 C7.32 9.32 8.64 10.64 10 12 C7.69 12.66 5.38 13.32 3 14 C3.66 15.32 4.32 16.64 5 18 C4.34 18.33 3.68 18.66 3 19 C2.18618205 17.06305322 1.37399084 15.12542289 0.5625 13.1875 C0.11003906 12.10855469 -0.34242188 11.02960937 -0.80859375 9.91796875 C-1.60375013 7.9704874 -2.33479648 5.99561057 -3 4 C-1.6875 1.8125 -1.6875 1.8125 0 0 Z " fill="#0D0E10" transform="translate(4,39)"/>
<path d="M0 0 C2.02350324 3.03525486 2.32124018 4.19426202 2.625 7.6875 C2.69976562 8.49574219 2.77453125 9.30398437 2.8515625 10.13671875 C2.92503906 11.05904297 2.92503906 11.05904297 3 12 C2.34 12 1.68 12 1 12 C1 14.31 1 16.62 1 19 C0.01 19.33 -0.98 19.66 -2 20 C-3.22520264 23.00847418 -3.22520264 23.00847418 -4 26 C-4.66 26 -5.32 26 -6 26 C-5.91621094 25.41992188 -5.83242187 24.83984375 -5.74609375 24.2421875 C-5.13790579 19.57684697 -4.92794335 15.64557883 -6 11 C-4.68 11 -3.36 11 -2 11 C-1.67 11.33 -1.34 11.66 -1 12 C-1.09539063 11.38511719 -1.19078125 10.77023438 -1.2890625 10.13671875 C-1.39992188 9.32847656 -1.51078125 8.52023438 -1.625 7.6875 C-1.74101563 6.88699219 -1.85703125 6.08648437 -1.9765625 5.26171875 C-2 3 -2 3 0 0 Z " fill="#020104" transform="translate(7,93)"/>
<path d="M0 0 C3.89115586 3.39137437 5.91983537 8.02241122 8.37890625 12.48046875 C8.91386719 13.31191406 9.44882813 14.14335938 10 15 C10.66 15 11.32 15 12 15 C13.50934217 18.01868434 13.17510672 20.67297229 13 24 C12.34 24.99 11.68 25.98 11 27 C9.34544965 23.44148536 7.70291536 19.87755003 6.0625 16.3125 C5.35963867 14.80139648 5.35963867 14.80139648 4.64257812 13.25976562 C3.9706543 11.79506836 3.9706543 11.79506836 3.28515625 10.30078125 C2.87144775 9.40528564 2.45773926 8.50979004 2.03149414 7.5871582 C1.02166025 5.0543275 0.44217565 2.68478898 0 0 Z " fill="#FFFA89" transform="translate(79,61)"/>
<path d="M0 0 C1.32 0 2.64 0 4 0 C4.66 1.98 5.32 3.96 6 6 C5.01 6.66 4.02 7.32 3 8 C2.34 7.67 1.68 7.34 1 7 C1.33 7.99 1.66 8.98 2 10 C2.66 10.33 3.32 10.66 4 11 C4 11.99 4 12.98 4 14 C1.125 13.6875 1.125 13.6875 -2 13 C-2.66 12.01 -3.32 11.02 -4 10 C-3.16130925 6.08610984 -2.22640104 3.33960156 0 0 Z " fill="#4552B0" transform="translate(70,7)"/>
<path d="M0 0 C0.66 0.33 1.32 0.66 2 1 C2 1.99 2 2.98 2 4 C3.43750191 5.68798827 3.43750191 5.68798827 5 7 C4.54625 7.886875 4.0925 8.77375 3.625 9.6875 C1.9953568 12.85993502 1.9953568 12.85993502 1 15.75 C0 18 0 18 -3 20 C-3.66 19.01 -4.32 18.02 -5 17 C-4 14 -4 14 -3 13 C-2.71612221 10.77854367 -2.55234827 8.55682352 -2.37890625 6.32421875 C-1.98034823 3.87945563 -1.21258013 2.14533408 0 0 Z " fill="#0A0A1B" transform="translate(28,72)"/>
<path d="M0 0 C0.66 0 1.32 0 2 0 C2.33 0.66 2.66 1.32 3 2 C3.99 2 4.98 2 6 2 C6.66 2.33 7.32 2.66 8 3 C7.34 3.66 6.68 4.32 6 5 C5.59952556 7.32275177 5.2602896 9.65739357 5 12 C8.465 13.485 8.465 13.485 12 15 C12 14.01 12 13.02 12 12 C11.01 11.67 10.02 11.34 9 11 C9.33 10.01 9.66 9.02 10 8 C10 8.66 10 9.32 10 10 C10.99 10.33 11.98 10.66 13 11 C13 12.65 13 14.3 13 16 C10.08517222 16.80967438 8.53886783 17.21845993 5.6875 16.0625 C5.130625 15.711875 4.57375 15.36125 4 15 C3.01 15.66 2.02 16.32 1 17 C-2.1875 16.625 -2.1875 16.625 -5 16 C-4.67 14.68 -4.34 13.36 -4 12 C-3.67 12.99 -3.34 13.98 -3 15 C-0.49641128 14.51792644 -0.49641128 14.51792644 2 13 C3.37967524 9.46485707 3.37967524 9.46485707 4 6 C3.34 6 2.68 6 2 6 C1.34 4.02 0.68 2.04 0 0 Z " fill="#3F1251" transform="translate(62,6)"/>
<path d="M0 0 C2.91643441 1.66994199 3.40761388 2.31273725 4.9375 5.5 C5.4375 8.375 5.4375 8.375 5.4375 10.375 C4.1175 10.705 2.7975 11.035 1.4375 11.375 C1.1075 8.735 0.7775 6.095 0.4375 3.375 C-0.8825 3.375 -2.2025 3.375 -3.5625 3.375 C-3.8925 2.715 -4.2225 2.055 -4.5625 1.375 C-10.02387814 1.27747539 -15.15505982 1.60250855 -20.5625 2.375 C-20.5625 1.715 -20.5625 1.055 -20.5625 0.375 C-13.92470302 -2.61499864 -6.74725252 -2.95500111 0 0 Z " fill="#05040B" transform="translate(27.5625,35.625)"/>
<path d="M0 0 C0.33 0 0.66 0 1 0 C0.67422369 7.16707877 -2.65443628 12.76927124 -6 19 C-9 15.28125 -9 15.28125 -9 12.75 C-7.58072894 8.8470046 -5.59286255 5.25521373 -3 2 C-2.34 2 -1.68 2 -1 2 C-0.67 1.34 -0.34 0.68 0 0 Z " fill="#FFFA89" transform="translate(56,60)"/>
<path d="M0 0 C0.98484375 0.19464844 1.9696875 0.38929687 2.984375 0.58984375 C3.73203125 0.74582031 4.4796875 0.90179688 5.25 1.0625 C5.58 0.4025 5.91 -0.2575 6.25 -0.9375 C5.92 1.0425 5.59 3.0225 5.25 5.0625 C4.4146875 4.90136719 3.579375 4.74023438 2.71875 4.57421875 C-0.98017437 4.0285441 -4.51186083 3.89399461 -8.25 3.875 C-10.15265625 3.85373047 -10.15265625 3.85373047 -12.09375 3.83203125 C-16.74668411 4.12532517 -20.39319311 4.70569311 -23.75 8.0625 C-23.64453125 6.19921875 -23.64453125 6.19921875 -22.75 4.0625 C-19.94921875 2.83203125 -19.94921875 2.83203125 -16.4375 1.875 C-15.28636719 1.55144531 -14.13523437 1.22789063 -12.94921875 0.89453125 C-11.89347656 0.61996094 -10.83773437 0.34539063 -9.75 0.0625 C-9.07066406 -0.15921875 -8.39132813 -0.3809375 -7.69140625 -0.609375 C-4.96407943 -1.07033164 -2.69965433 -0.54635861 0 0 Z " fill="#000000" transform="translate(115.75,44.9375)"/>
<path d="M0 0 C0.66 0.33 1.32 0.66 2 1 C1.34 2.65 0.68 4.3 0 6 C0.66 6.33 1.32 6.66 2 7 C1.67 9.64 1.34 12.28 1 15 C1.66 15 2.32 15 3 15 C3.66015625 16.7734375 3.66015625 16.7734375 4 19 C1.79317437 23.07017645 -1.15613567 25.64057631 -5.375 27.4375 C-6.24125 27.623125 -7.1075 27.80875 -8 28 C-5 25 -2 22 1 19 C0.03223902 15.20452079 0.03223902 15.20452079 -2 12 C-2 10.33333333 -2 8.66666667 -2 7 C-2.29044914 5.65667272 -2.60955794 4.31774196 -3 3 C-2.34 3 -1.68 3 -1 3 C-0.67 2.01 -0.34 1.02 0 0 Z M4 15 C4.99 16.485 4.99 16.485 6 18 C5.34 18 4.68 18 4 18 C4 17.01 4 16.02 4 15 Z " fill="#050407" transform="translate(8,58)"/>
<path d="M0 0 C0.66 0 1.32 0 2 0 C4.42857143 7.42857143 4.42857143 7.42857143 3 11 C2.01 10.67 1.02 10.34 0 10 C0 9.34 0 8.68 0 8 C-0.66 8 -1.32 8 -2 8 C-1.649375 8.845625 -1.29875 9.69125 -0.9375 10.5625 C0.13554394 14.49699444 -0.08843433 17.04988208 -1 21 C-1.66 21.66 -2.32 22.32 -3 23 C-3.08144943 20.29105233 -3.14070614 17.58458737 -3.1875 14.875 C-3.21263672 14.11445312 -3.23777344 13.35390625 -3.26367188 12.5703125 C-3.32797453 7.5975739 -2.65594442 4.36383518 0 0 Z " fill="#1A1D27" transform="translate(3,96)"/>
<path d="M0 0 C2.00909735 3.01364603 2.35817588 4.40489523 2.875 7.875 C3.66194342 12.21588145 4.81194484 14.81194484 8 18 C5.36 18 2.72 18 0 18 C-0.06058594 17.32453125 -0.12117188 16.6490625 -0.18359375 15.953125 C-0.26738281 15.06109375 -0.35117188 14.1690625 -0.4375 13.25 C-0.51871094 12.36828125 -0.59992188 11.4865625 -0.68359375 10.578125 C-0.93261659 8.0428332 -0.93261659 8.0428332 -1.59375 5.8125 C-2.15258273 3.31924629 -1.29076735 2.12596976 0 0 Z " fill="#8D8F91" transform="translate(113,110)"/>
<path d="M0 0 C8.81548975 5.96583144 8.81548975 5.96583144 10 11 C9.34 10.67 8.68 10.34 8 10 C7.01 11.485 7.01 11.485 6 13 C4.18674449 12.88648483 2.37436643 12.75887039 0.5625 12.625 C-0.44683594 12.55539063 -1.45617188 12.48578125 -2.49609375 12.4140625 C-3.32238281 12.27742188 -4.14867187 12.14078125 -5 12 C-5.33 11.34 -5.66 10.68 -6 10 C-3.36 10 -0.72 10 2 10 C2.87436418 8.26424351 2.87436418 8.26424351 3 6 C1.14835964 3.24743206 1.14835964 3.24743206 -1 1 C-0.67 0.67 -0.34 0.34 0 0 Z " fill="#030207" transform="translate(54,27)"/>
<path d="M0 0 C2.27076842 -0.02699725 4.54162821 -0.04639453 6.8125 -0.0625 C8.07707031 -0.07410156 9.34164062 -0.08570312 10.64453125 -0.09765625 C14 0 14 0 17 1 C18.50662097 4.01324195 18.17770373 6.68286377 18 10 C17.34 10.66 16.68 11.32 16 12 C16 9.69 16 7.38 16 5 C15.14728516 4.92652344 15.14728516 4.92652344 14.27734375 4.8515625 C9.28918871 4.36856919 4.77400422 3.52361837 0 2 C0 1.34 0 0.68 0 0 Z " fill="#0B0B15" transform="translate(106,32)"/>
<path d="M0 0 C1.875 0.3125 1.875 0.3125 4 1 C6 4 6 4 5.625 6.6875 C5.41875 7.450625 5.2125 8.21375 5 9 C-2.625 10 -2.625 10 -6 10 C-5.01 8.68 -4.02 7.36 -3 6 C-4.65 5.67 -6.3 5.34 -8 5 C-8 4.67 -8 4.34 -8 4 C-5.03 4 -2.06 4 1 4 C0.67 2.68 0.34 1.36 0 0 Z " fill="#CA853F" transform="translate(25,52)"/>
<path d="M0 0 C2.5 1.25 2.5 1.25 5 3 C5 4.32 5 5.64 5 7 C4.34 7 3.68 7 3 7 C3.020625 7.94875 3.04125 8.8975 3.0625 9.875 C3 13 3 13 2 15 C1.34 15 0.68 15 0 15 C-1.04449911 11.86650268 -0.93423645 11.01031744 0 8 C-0.99 8 -1.98 8 -3 8 C-3.99 8 -4.98 8 -6 8 C-5.67 7.01 -5.34 6.02 -5 5 C-2.9375 4.3125 -2.9375 4.3125 -1 4 C-0.67 2.68 -0.34 1.36 0 0 Z " fill="#302A55" transform="translate(61,35)"/>
<path d="M0 0 C0.99 0.33 1.98 0.66 3 1 C3 2.98 3 4.96 3 7 C3.66 7 4.32 7 5 7 C4.67 8.32 4.34 9.64 4 11 C2.68 10.67 1.36 10.34 0 10 C0 9.34 0 8.68 0 8 C-1.65 8 -3.3 8 -5 8 C-4.67 6.35 -4.34 4.7 -4 3 C-3.01 3 -2.02 3 -1 3 C-0.67 2.01 -0.34 1.02 0 0 Z " fill="#43494C" transform="translate(90,3)"/>
<path d="M0 0 C-0.99 0.33 -1.98 0.66 -3 1 C-4.21869929 3.50447516 -4.21869929 3.50447516 -5 6 C-8 6 -11 6 -14 6 C-13.34 4.02 -12.68 2.04 -12 0 C-10.56359829 -0.19573608 -9.12580496 -0.38127816 -7.6875 -0.5625 C-6.88699219 -0.66691406 -6.08648437 -0.77132812 -5.26171875 -0.87890625 C-3 -1 -3 -1 0 0 Z " fill="#4B3880" transform="translate(18,37)"/>
<path d="M0 0 C0.33 0.33 0.66 0.66 1 1 C0.71269945 3.33944736 0.38063221 5.6739143 0 8 C-1.65 8 -3.3 8 -5 8 C-5 6.68 -5 5.36 -5 4 C-5.66 3.67 -6.32 3.34 -7 3 C-7 2.34 -7 1.68 -7 1 C-8.32 0.67 -9.64 0.34 -11 0 C-7.17998192 -1.37520651 -3.92473073 -0.74051523 0 0 Z " fill="#21253F" transform="translate(127,83)"/>
<path d="M0 0 C2.97 0.495 2.97 0.495 6 1 C7.125 6.75 7.125 6.75 6 9 C3.36 9 0.72 9 -2 9 C-0.125 7.9375 -0.125 7.9375 2 7 C2.66 7.33 3.32 7.66 4 8 C4 7.34 4 6.68 4 6 C2.35 5.67 0.7 5.34 -1 5 C-0.67 3.35 -0.34 1.7 0 0 Z " fill="#10102C" transform="translate(51,119)"/>
<path d="M0 0 C0.3633218 6.41868512 0.3633218 6.41868512 -1.25 9 C-3 10 -3 10 -5.1875 9.6875 C-5.785625 9.460625 -6.38375 9.23375 -7 9 C-7.33 7.35 -7.66 5.7 -8 4 C-7.1028125 3.566875 -7.1028125 3.566875 -6.1875 3.125 C-0.11111111 0 -0.11111111 0 0 0 Z " fill="#727274" transform="translate(107,10)"/>
<path d="M0 0 C3.28426103 1.05565533 4.57151556 2.61660352 6.25 5.5 C8 9 8 9 8 11 C4.90915263 10.65657251 3.67555431 9.74044345 1.1875 7.75 C-1 5 -1 5 -0.8125 2.1875 C-0.544375 1.465625 -0.27625 0.74375 0 0 Z " fill="#31215E" transform="translate(44,80)"/>
<path d="M0 0 C3.226345 3.80247803 5.77535219 7.55070439 8 12 C7 15 7 15 5 16 C3.96455826 14.09118566 2.94709915 12.17260796 1.9375 10.25 C1.36902344 9.18265625 0.80054687 8.1153125 0.21484375 7.015625 C-1.01044806 3.97406463 -1.25348607 2.95106435 0 0 Z " fill="#6D7B97" transform="translate(81,46)"/>
<path d="M0 0 C2.0343459 1.41519715 2.90410393 2.54982123 3.421875 4.98046875 C3.66273952 6.98176954 3.83532741 8.9909944 4 11 C-0.455 11.495 -0.455 11.495 -5 12 C-4 9 -4 9 -1 7 C-0.26393501 3.43230448 -0.26393501 3.43230448 0 0 Z " fill="#211B15" transform="translate(84,26)"/>
<path d="M0 0 C3.96 0 7.92 0 12 0 C12.33 1.65 12.66 3.3 13 5 C10 6 10 6 7.51953125 5.00390625 C6.62621094 4.52824219 5.73289062 4.05257813 4.8125 3.5625 C3.91144531 3.08941406 3.01039062 2.61632812 2.08203125 2.12890625 C1.39496094 1.75636719 0.70789062 1.38382812 0 1 C0 0.67 0 0.34 0 0 Z " fill="#62CEE1" transform="translate(46,0)"/>
<path d="M0 0 C0.6875 1.75 0.6875 1.75 1 4 C-0.4375 6.25 -0.4375 6.25 -2 8 C-2.33 7.34 -2.66 6.68 -3 6 C-3.33 7.65 -3.66 9.3 -4 11 C-5.76462683 7.91190305 -6 6.76687864 -6 3 C-4.02 2.01 -2.04 1.02 0 0 Z " fill="#141231" transform="translate(6,83)"/>
<path d="M0 0 C0.33 0 0.66 0 1 0 C1.33820166 1.5823006 1.67035939 3.16589375 2 4.75 C2.185625 5.63171875 2.37125 6.5134375 2.5625 7.421875 C3 10 3 10 3 14 C1.71254964 14.38922918 0.41980403 14.76098036 -0.875 15.125 C-1.95394531 15.43824219 -1.95394531 15.43824219 -3.0546875 15.7578125 C-3.69664063 15.83773438 -4.33859375 15.91765625 -5 16 C-5.66 15.34 -6.32 14.68 -7 14 C-4.69 12.68 -2.38 11.36 0 10 C0 6.7 0 3.4 0 0 Z " fill="#000000" transform="translate(78,14)"/>
<path d="M0 0 C5.46875 4.39453125 5.46875 4.39453125 7 6 C7 6.99 7 7.98 7 9 C4.69 9 2.38 9 0 9 C0 6.03 0 3.06 0 0 Z " fill="#08080B" transform="translate(0,119)"/>
<path d="M0 0 C0.33 0 0.66 0 1 0 C1.19402245 4.17148265 1.01430083 7.28944583 -1 11 C-1.99 11.33 -2.98 11.66 -4 12 C-4.66 10.02 -5.32 8.04 -6 6 C-5.195625 5.7525 -4.39125 5.505 -3.5625 5.25 C-0.828919 4.27761141 -0.828919 4.27761141 -0.1875 1.875 C-0.125625 1.25625 -0.06375 0.6375 0 0 Z " fill="#000000" transform="translate(49,25)"/>
<path d="M0 0 C0.33 0 0.66 0 1 0 C1 1.98 1 3.96 1 6 C2.65 5.34 4.3 4.68 6 4 C6 5.32 6 6.64 6 8 C5.34 8 4.68 8 4 8 C4 8.66 4 9.32 4 10 C2.02 10.33 0.04 10.66 -2 11 C-1.34 7.37 -0.68 3.74 0 0 Z " fill="#000000" transform="translate(87,101)"/>
<path d="M0 0 C3.64780666 4.1689219 6 9.44803736 6 15 C5.34 15 4.68 15 4 15 C4 14.01 4 13.02 4 12 C3.34 12 2.68 12 2 12 C1.67 11.34 1.34 10.68 1 10 C0.01 10 -0.98 10 -2 10 C-1.67 9.46375 -1.34 8.9275 -1 8.375 C0.22699204 5.4608939 0.14233286 3.13132292 0 0 Z " fill="#05050E" transform="translate(51,83)"/>
<path d="M0 0 C0.33 0.66 0.66 1.32 1 2 C-0.328125 4.6015625 -0.328125 4.6015625 -2.25 7.625 C-2.87390625 8.62789062 -3.4978125 9.63078125 -4.140625 10.6640625 C-4.75421875 11.43492188 -5.3678125 12.20578125 -6 13 C-6.99 13 -7.98 13 -9 13 C-8.70996094 12.42636719 -8.41992188 11.85273437 -8.12109375 11.26171875 C-7.40461925 9.81628761 -6.70723481 8.36113184 -6.03515625 6.89453125 C-5.71417969 6.20746094 -5.39320312 5.52039062 -5.0625 4.8125 C-4.58490234 3.77029297 -4.58490234 3.77029297 -4.09765625 2.70703125 C-3 1 -3 1 0 0 Z " fill="#091115" transform="translate(61,50)"/>
<path d="M0 0 C2.16874252 0.50603992 3.99967627 0.99983813 6 2 C5.25 6.75 5.25 6.75 3 9 C2.67 7.68 2.34 6.36 2 5 C1.01 5 0.02 5 -1 5 C-0.67 3.35 -0.34 1.7 0 0 Z " fill="#090611" transform="translate(34,44)"/>
<path d="M0 0 C0.66 0.33 1.32 0.66 2 1 C2 1.66 2 2.32 2 3 C2.763125 2.62875 3.52625 2.2575 4.3125 1.875 C5.199375 1.58625 6.08625 1.2975 7 1 C7.99 1.66 8.98 2.32 10 3 C9.113125 3.433125 8.22625 3.86625 7.3125 4.3125 C4.45570545 5.76784817 1.72603137 7.31627474 -1 9 C-0.67 6.03 -0.34 3.06 0 0 Z " fill="#0A0A13" transform="translate(89,36)"/>
<path d="M0 0 C2.64 0 5.28 0 8 0 C7.67 1.32 7.34 2.64 7 4 C3.37 4.33 -0.26 4.66 -4 5 C-3.67 4.01 -3.34 3.02 -3 2 C-2.01 2 -1.02 2 0 2 C0 1.34 0 0.68 0 0 Z " fill="#CFA985" transform="translate(108,97)"/>
<path d="M0 0 C-0.99 0.33 -1.98 0.66 -3 1 C-3.391875 1.639375 -3.78375 2.27875 -4.1875 2.9375 C-6.96192507 6.09460439 -9.92997637 6.19933961 -14 7 C-12.79476952 3.38430856 -11.92814436 3.05330455 -8.6875 1.25 C-7.90761719 0.80140625 -7.12773438 0.3528125 -6.32421875 -0.109375 C-3.69699083 -1.11611108 -2.59072612 -0.97226335 0 0 Z " fill="#473A2D" transform="translate(108,99)"/>
<path d="M0 0 C0.78375 0.495 1.5675 0.99 2.375 1.5 C4.78552327 3.16537965 4.78552327 3.16537965 7 3 C6.34 4.65 5.68 6.3 5 8 C1.63279613 6.60667426 0.0140476 5.0210714 -2 2 C-1.34 2 -0.68 2 0 2 C0 1.34 0 0.68 0 0 Z " fill="#0E0C22" transform="translate(16,81)"/>
<path d="M0 0 C2.31 0.33 4.62 0.66 7 1 C6.01 1.495 6.01 1.495 5 2 C5 4.31 5 6.62 5 9 C2.5 6.75 2.5 6.75 0 4 C0 2.68 0 1.36 0 0 Z " fill="#DCB38C" transform="translate(99,60)"/>
<path d="M0 0 C-1.38188453 3.21043882 -2.92421903 5.04936365 -5.625 7.25 C-6.57246094 8.03117187 -6.57246094 8.03117187 -7.5390625 8.828125 C-8.02117188 9.21484375 -8.50328125 9.6015625 -9 10 C-9.33 9.01 -9.66 8.02 -10 7 C-8.71372289 5.82739389 -7.42080217 4.6620717 -6.125 3.5 C-5.04605469 2.52546875 -5.04605469 2.52546875 -3.9453125 1.53125 C-2 0 -2 0 0 0 Z " fill="#FFFA89" transform="translate(10,75)"/>
<path d="M0 0 C2.93200474 2.85276137 5.64315404 5.65079784 8 9 C7.34 9 6.68 9 6 9 C6.33 9.763125 6.66 10.52625 7 11.3125 C8 14 8 14 8 17 C4.52570529 13.17827582 3.24473932 9.97895726 2 5 C1.35800351 3.32367583 0.70105843 1.65249487 0 0 Z " fill="#000000" transform="translate(97,62)"/>
<path d="M0 0 C3.465 1.98 3.465 1.98 7 4 C7 4.99 7 5.98 7 7 C7.99 6.67 8.98 6.34 10 6 C9.25 7.9375 9.25 7.9375 8 10 C5.875 10.75 5.875 10.75 4 11 C4.0825 10.071875 4.165 9.14375 4.25 8.1875 C4.3664015 4.90933823 4.3664015 4.90933823 2 3.25 C1.34 2.8375 0.68 2.425 0 2 C0 1.34 0 0.68 0 0 Z " fill="#000000" transform="translate(26,50)"/>
<path d="M0 0 C2.625 0.9375 2.625 0.9375 5 2 C4 4 4 4 1 6 C1.33 6.99 1.66 7.98 2 9 C1.34 9 0.68 9 0 9 C-1.76462683 5.91190305 -2 4.76687864 -2 1 C-1.34 0.67 -0.68 0.34 0 0 Z " fill="#3C206B" transform="translate(58,7)"/>
<path d="M0 0 C4.67692308 1.47692308 4.67692308 1.47692308 6.3125 4.125 C6.539375 4.74375 6.76625 5.3625 7 6 C4.09399739 7.25664978 2.20395416 8 -1 8 C-1 7.34 -1 6.68 -1 6 C-0.34 6 0.32 6 1 6 C0.67 4.02 0.34 2.04 0 0 Z " fill="#000000" transform="translate(100,0)"/>
<path d="M0 0 C2.64 0 5.28 0 8 0 C8.80967438 2.91482778 9.21845993 4.46113217 8.0625 7.3125 C7.5365625 8.1478125 7.5365625 8.1478125 7 9 C6.731875 8.401875 6.46375 7.80375 6.1875 7.1875 C5.00153854 5.00283415 3.8192515 3.66764721 2 2 C1.34 1.34 0.68 0.68 0 0 Z " fill="#444545" transform="translate(101,0)"/>
<path d="M0 0 C1.65 0 3.3 0 5 0 C5 1.32 5 2.64 5 4 C2 6 2 6 -0.1875 5.625 C-0.785625 5.41875 -1.38375 5.2125 -2 5 C-1.34 3.35 -0.68 1.7 0 0 Z " fill="#9B7F63" transform="translate(77,28)"/>
<path d="M0 0 C1.06528748 2.73019786 1.07998186 3.79298812 0.00390625 6.578125 C-0.47175781 7.45984375 -0.94742188 8.3415625 -1.4375 9.25 C-1.91058594 10.14203125 -2.38367187 11.0340625 -2.87109375 11.953125 C-3.24363281 12.62859375 -3.61617187 13.3040625 -4 14 C-4.66 13.67 -5.32 13.34 -6 13 C-5.51675181 7.84535266 -2.81389239 4.18449681 0 0 Z " fill="#5FCDE4" transform="translate(53,62)"/>
<path d="M0 0 C0.33 0.66 0.66 1.32 1 2 C1.66 2.33 2.32 2.66 3 3 C1.625 4.5 1.625 4.5 0 6 C-0.66 6 -1.32 6 -2 6 C-2.33 6.99 -2.66 7.98 -3 9 C-3 8.01 -3 7.02 -3 6 C-3.66 6 -4.32 6 -5 6 C-5.33 6.66 -5.66 7.32 -6 8 C-6 7.34 -6 6.68 -6 6 C-6.66 5.67 -7.32 5.34 -8 5 C-5.09399739 3.74335022 -3.20395416 3 0 3 C0 2.01 0 1.02 0 0 Z " fill="#100D0A" transform="translate(119,91)"/>
<path d="M0 0 C0.66 0.33 1.32 0.66 2 1 C1.67 3.64 1.34 6.28 1 9 C0.34 8.67 -0.32 8.34 -1 8 C-1.66 8.99 -2.32 9.98 -3 11 C-2.25 3.375 -2.25 3.375 0 0 Z " fill="#020207" transform="translate(11,82)"/>
<path d="M0 0 C0.99 0 1.98 0 3 0 C3.33 1.98 3.66 3.96 4 6 C2.02 6.99 2.02 6.99 0 8 C-0.79953138 4.71303767 -1.09658936 3.28976808 0 0 Z " fill="#807F81" transform="translate(97,0)"/>
<path d="M0 0 C2.64 0 5.28 0 8 0 C8.66 1.32 9.32 2.64 10 4 C6.535 5.485 6.535 5.485 3 7 C2.67 6.34 2.34 5.68 2 5 C2.99 4.01 3.98 3.02 5 2 C3.35 1.67 1.7 1.34 0 1 C0 0.67 0 0.34 0 0 Z " fill="#000000" transform="translate(17,56)"/>
<path d="M0 0 C2.60018816 3.90028225 2.15085514 7.47434569 2 12 C0.02 12.66 -1.96 13.32 -4 14 C-3.34 12.68 -2.68 11.36 -2 10 C-1.34 10 -0.68 10 0 10 C-0.2784375 8.9171875 -0.2784375 8.9171875 -0.5625 7.8125 C-1.01995307 4.87173027 -0.73516357 2.85896942 0 0 Z " fill="#E8BE96" transform="translate(82,22)"/>
<path d="M0 0 C1.8141927 0.28094582 3.62635001 0.57506433 5.4375 0.875 C6.95150391 1.11863281 6.95150391 1.11863281 8.49609375 1.3671875 C9.32238281 1.57601562 10.14867188 1.78484375 11 2 C11.33 2.66 11.66 3.32 12 4 C7.07872966 4.16682272 3.49656104 4.24828052 -1 2 C-0.67 1.34 -0.34 0.68 0 0 Z " fill="#07070C" transform="translate(101,32)"/>
<path d="M0 0 C0 0.99 0 1.98 0 3 C0.3062434 4.33981486 0.63451555 5.67511887 1 7 C-0.48117801 6.71872579 -1.95993249 6.42466268 -3.4375 6.125 C-4.26121094 5.96257813 -5.08492187 5.80015625 -5.93359375 5.6328125 C-6.61550781 5.42398438 -7.29742188 5.21515625 -8 5 C-8.33 4.34 -8.66 3.68 -9 3 C-7.88625 2.87625 -6.7725 2.7525 -5.625 2.625 C-1.96896323 2.3534187 -1.96896323 2.3534187 0 0 Z " fill="#1D192A" transform="translate(36,57)"/>
<path d="M0 0 C5.73842251 -0.20413361 10.60539047 -0.27141454 16 2 C16 2.33 16 2.66 16 3 C10.22192976 3.2358396 5.48675196 2.86783046 0 1 C0 0.67 0 0.34 0 0 Z " fill="#3F3F74" transform="translate(106,33)"/>
<path d="M0 0 C1.32 0 2.64 0 4 0 C4 1.98 4 3.96 4 6 C4.66 6 5.32 6 6 6 C6 6.66 6 7.32 6 8 C4.35 8.33 2.7 8.66 1 9 C1.020625 8.071875 1.04125 7.14375 1.0625 6.1875 C1.15769604 2.97713989 1.15769604 2.97713989 0 0 Z " fill="#404EB0" transform="translate(58,12)"/>
<path d="M0 0 C0 1.65 0 3.3 0 5 C-0.598125 4.773125 -1.19625 4.54625 -1.8125 4.3125 C-2.8953125 4.1578125 -2.8953125 4.1578125 -4 4 C-5.77190909 5.35444301 -5.77190909 5.35444301 -7 7 C-7.66 6.67 -8.32 6.34 -9 6 C-4.5 0 -4.5 0 0 0 Z " fill="#1A1439" transform="translate(58,98)"/>
<path d="M0 0 C0.99 0.33 1.98 0.66 3 1 C-0.96 4.465 -0.96 4.465 -5 8 C-5.33 6.68 -5.66 5.36 -6 4 C-3.1875 1.9375 -3.1875 1.9375 0 0 Z " fill="#5BC4DA" transform="translate(6,74)"/>
<path d="M0 0 C1.98 0.66 3.96 1.32 6 2 C6 2.99 6 3.98 6 5 C6.99 4.67 7.98 4.34 9 4 C9 4.66 9 5.32 9 6 C6.69 6 4.38 6 2 6 C1.34 4.02 0.68 2.04 0 0 Z " fill="#11102B" transform="translate(23,45)"/>
<path d="M0 0 C0.66 0.66 1.32 1.32 2 2 C1.53846154 8.46153846 1.53846154 8.46153846 -1 11 C-1.02688151 9.35425434 -1.04634123 7.70838587 -1.0625 6.0625 C-1.07410156 5.14597656 -1.08570312 4.22945313 -1.09765625 3.28515625 C-1 1 -1 1 0 0 Z " fill="#FFFA89" transform="translate(1,108)"/>
<path d="M0 0 C3.78834395 1.26278132 4.22011278 2.52112952 6 6 C6.6875 8.3125 6.6875 8.3125 7 10 C1.21538462 5.69230769 1.21538462 5.69230769 0.125 2.1875 C0.08375 1.465625 0.0425 0.74375 0 0 Z " fill="#77779C" transform="translate(102,70)"/>
<path d="M0 0 C-0.33 0.99 -0.66 1.98 -1 3 C-4.63 3.33 -8.26 3.66 -12 4 C-12 3.34 -12 2.68 -12 2 C-7.8803623 0.70756464 -4.33168317 -0.26252625 0 0 Z " fill="#CACED0" transform="translate(111,102)"/>
<path d="M0 0 C1.67542976 0.28604898 3.34385343 0.61781233 5 1 C3.71937515 2.7074998 2.38232443 4.37373596 1 6 C0.34 6 -0.32 6 -1 6 C-1.042721 4.33388095 -1.04063832 2.66617115 -1 1 C-0.67 0.67 -0.34 0.34 0 0 Z " fill="#E7BD95" transform="translate(103,53)"/>
<path d="M0 0 C1.32 0.66 2.64 1.32 4 2 C3.67 3.32 3.34 4.64 3 6 C1.68 5.67 0.36 5.34 -1 5 C-0.67 3.35 -0.34 1.7 0 0 Z " fill="#CB8944" transform="translate(54,31)"/>
<path d="M0 0 C1.65 0 3.3 0 5 0 C5.33 1.98 5.66 3.96 6 6 C4.125 5.8125 4.125 5.8125 2 5 C0.75 2.4375 0.75 2.4375 0 0 Z " fill="#E7BD95" transform="translate(71,29)"/>
<path d="M0 0 C2.97 0 5.94 0 9 0 C6.01193893 1.49403054 3.10343799 2.79310745 0 4 C0 2.68 0 1.36 0 0 Z " fill="#5FCDE4" transform="translate(72,0)"/>
<path d="M0 0 C1.65 0.33 3.3 0.66 5 1 C4.67 2.32 4.34 3.64 4 5 C2.35 4.67 0.7 4.34 -1 4 C-0.67 2.68 -0.34 1.36 0 0 Z " fill="#000000" transform="translate(106,26)"/>
<path d="M0 0 C0.66 0 1.32 0 2 0 C2.625 1.875 2.625 1.875 3 4 C2.34 4.66 1.68 5.32 1 6 C-1.625 5.625 -1.625 5.625 -4 5 C-4 4.34 -4 3.68 -4 3 C-2.68 3.33 -1.36 3.66 0 4 C0 2.68 0 1.36 0 0 Z " fill="#242325" transform="translate(96,26)"/>
<path d="M0 0 C-0.66 2.97 -1.32 5.94 -2 9 C-4 5 -4 5 -4 1 C-2 0 -2 0 0 0 Z " fill="#3B2B60" transform="translate(4,85)"/>
<path d="M0 0 C1.32 0.66 2.64 1.32 4 2 C2.515 4.475 2.515 4.475 1 7 C0.34 6.67 -0.32 6.34 -1 6 C-0.67 4.02 -0.34 2.04 0 0 Z " fill="#0E0E26" transform="translate(32,66)"/>
<path d="M0 0 C0 1.65 0 3.3 0 5 C-1.65 5.33 -3.3 5.66 -5 6 C-5 4.68 -5 3.36 -5 2 C-1.125 0 -1.125 0 0 0 Z " fill="#000000" transform="translate(120,50)"/>
<path d="M0 0 C1.32 1.65 2.64 3.3 4 5 C3.34 6.32 2.68 7.64 2 9 C-1.07692308 4.56923077 -1.07692308 4.56923077 -0.6875 1.6875 C-0.460625 1.130625 -0.23375 0.57375 0 0 Z " fill="#5F6C85" transform="translate(81,46)"/>
<path d="M0 0 C0.598125 0.61875 1.19625 1.2375 1.8125 1.875 C4.00811144 4.13676954 4.00811144 4.13676954 7 6 C6.01 6 5.02 6 4 6 C3.67 6.66 3.34 7.32 3 8 C0.37613513 4.93882432 0 4.26826873 0 0 Z " fill="#000000" transform="translate(70,30)"/>
<path d="M0 0 C0.33 1.32 0.66 2.64 1 4 C-0.65 5.32 -2.3 6.64 -4 8 C-3.6875 5.125 -3.6875 5.125 -3 2 C-2.01 1.34 -1.02 0.68 0 0 Z " fill="#161334" transform="translate(11,103)"/>
<path d="M0 0 C1.32 0.66 2.64 1.32 4 2 C3.01 2.99 2.02 3.98 1 5 C-0.32 4.34 -1.64 3.68 -3 3 C-2.01 2.01 -1.02 1.02 0 0 Z " fill="#503C86" transform="translate(54,101)"/>
<path d="M0 0 C2.14208427 3.2131264 2.59687808 5.21065397 3 9 C2.67 9.66 2.34 10.32 2 11 C-0.67927341 6.98108988 -0.15601248 4.75838077 0 0 Z " fill="#32275C" transform="translate(4,96)"/>
<path d="M0 0 C0.33 0 0.66 0 1 0 C1.66 2.64 2.32 5.28 3 8 C1.02 8 -0.96 8 -3 8 C-2.67 6.68 -2.34 5.36 -2 4 C-1.67 4.33 -1.34 4.66 -1 5 C-0.67 3.35 -0.34 1.7 0 0 Z " fill="#000000" transform="translate(101,53)"/>
<path d="M0 0 C2.475 0.99 2.475 0.99 5 2 C4.34 3.65 3.68 5.3 3 7 C1.68 5.35 0.36 3.7 -1 2 C-0.67 1.34 -0.34 0.68 0 0 Z " fill="#CBDBFC" transform="translate(90,43)"/>
<path d="M0 0 C1.32 0.66 2.64 1.32 4 2 C4 3.32 4 4.64 4 6 C2.68 6.33 1.36 6.66 0 7 C-0.38133299 5.0085944 -0.71325582 3.00720923 -1 1 C-0.67 0.67 -0.34 0.34 0 0 Z " fill="#080817" transform="translate(29,40)"/>
<path d="M0 0 C2.475 0.99 2.475 0.99 5 2 C3.1875 3.5625 3.1875 3.5625 1 5 C0.01 4.67 -0.98 4.34 -2 4 C-1.34 2.68 -0.68 1.36 0 0 Z " fill="#8585A7" transform="translate(78,37)"/>
<path d="M0 0 C0.66 0.66 1.32 1.32 2 2 C1 4 0 6 -1 8 C-2.4606285 5.35261084 -3 4.10551666 -3 1 C-2.01 0.67 -1.02 0.34 0 0 Z " fill="#453934" transform="translate(77,35)"/>
<path d="M0 0 C2.17766075 4.35532149 2.03039555 5.46625958 1 10 C0.34 9.67 -0.32 9.34 -1 9 C-0.67 6.03 -0.34 3.06 0 0 Z " fill="#08050F" transform="translate(42,75)"/>
<path d="M0 0 C2.01920337 1.30406884 4.01924973 2.63823419 6 4 C6 4.33 6 4.66 6 5 C3.69 4.67 1.38 4.34 -1 4 C-0.67 2.68 -0.34 1.36 0 0 Z " fill="#FFFA89" transform="translate(116,77)"/>
<path d="M0 0 C0.928125 0.2784375 0.928125 0.2784375 1.875 0.5625 C4.04160178 1.23686176 4.04160178 1.23686176 6 0 C5.67 1.32 5.34 2.64 5 4 C2.69 4 0.38 4 -2 4 C-1.34 2.68 -0.68 1.36 0 0 Z " fill="#000000" transform="translate(107,50)"/>
<path d="M0 0 C2.97 0.495 2.97 0.495 6 1 C5.01 1.66 4.02 2.32 3 3 C3 3.66 3 4.32 3 5 C1.68 4.34 0.36 3.68 -1 3 C-0.67 2.01 -0.34 1.02 0 0 Z " fill="#07070D" transform="translate(114,81)"/>
<path d="M0 0 C1.65 0 3.3 0 5 0 C4.34 1.32 3.68 2.64 3 4 C1.68 3.67 0.36 3.34 -1 3 C-0.67 2.01 -0.34 1.02 0 0 Z " fill="#0F0D25" transform="translate(47,64)"/>
<path d="M0 0 C4.875 1.75 4.875 1.75 6 4 C5.4225 3.835 4.845 3.67 4.25 3.5 C1.73335631 2.85537969 1.73335631 2.85537969 -2 3 C-1.34 2.67 -0.68 2.34 0 2 C0 1.34 0 0.68 0 0 Z " fill="#000000" transform="translate(26,36)"/>
</svg>
